<?xml version="1.0" encoding="utf-8"?>
<!-- Generator: Adobe Illustrator 26.2.1, SVG Export Plug-In . SVG Version: 6.00 Build 0)  -->
<svg version="1.1" id="Layer_1" xmlns="http://www.w3.org/2000/svg" xmlns:xlink="http://www.w3.org/1999/xlink" x="0px" y="0px"
	 viewBox="0 0 393 706" style="enable-background:new 0 0 393 706;" xml:space="preserve">
<style type="text/css">
	.st0{fill:currentColor;}
	.st1{clip-path:url(#SVGID_00000145781122399998520510000016286259152990329788_);}
	.st2{fill:none;stroke:#83F295;stroke-width:5.3783;stroke-linecap:round;stroke-dasharray:9.000000e-02,15.24;}
</style>
<path class="st0" d="M197.6,671.9C200.9,670.6,198.8,676.5,197.6,671.9L197.6,671.9z M202.6,673.2l-0.7-1.5l-1.5,0.7l0.7,1.5
	L202.6,673.2z M201.1,675.6l0.7,1.5l2.9-1.4l-0.7-1.5L201.1,675.6z M227.7,699.3c1.8,0.7,4.6-1.5,2.6-3.9
	C228.4,696.4,228.3,698,227.7,699.3L227.7,699.3z M508.4,576.5l0.7,1.5l1.5-0.7c-0.2-0.5-0.5-1-0.7-1.5L508.4,576.5z M235.6,706
	c1.9-0.8,3.6-1.6,2.9-3.2C236.7,703.5,234.9,704.3,235.6,706z M205.2,597.6c-0.5,0.2-3.1-2.7-2.2-0.8c0.4,0.9,0.8,0.9,1.4,1.1
	C206.5,598.6,208.2,596.2,205.2,597.6z M572.8,536.8c3-0.6,1.2-5-1-4C572.9,534.4,571.2,535,572.8,536.8z M213.5,580.9
	c-0.6-1.1-1.1-2.6-2.5-1.5l0.7,1.5C212.4,580.6,212.8,581.1,213.5,580.9z M207.8,593.6c-0.5-1.5-1.6-1.2-2.1-2.6l-2.9,1.4
	C203.8,594.8,205.9,594.1,207.8,593.6z M207.7,604.6c-1.2-1.3-1.4-5.3-3.2-4.8c-0.2,3-0.9,5.8,1,9.5c2.7-0.7,0.5-2.1-0.3-2.6
	C206.2,606.3,207.1,605.6,207.7,604.6z M530,562.4c0.2,0.5,0.5,1,0.7,1.5l1.5-0.7l-0.7-1.5L530,562.4z M554.3,542.8
	c-0.1,0.7-0.1,1.4,0.1,2.1c0.2,0.7,0.5,1.3,0.9,1.9l2.9-1.4C557.6,542.6,556,542.6,554.3,542.8z M553.1,546.1l-0.7-1.5l-1.5,0.7
	l0.7,1.5L553.1,546.1z M558.1,550.3c0.5,1,1,2,1.4,3l1.5-0.7c-0.5-1-1-2-1.4-3L558.1,550.3z M561.2,540.1c0.3,1.1,1.8,2.6,1.4,1.1
	C562.3,540.1,560.8,538.5,561.2,540.1L561.2,540.1z M562.7,557.3c0.8,2.5,2.3,2.6,3.9,2.6c0-1.6,2.5-2.4,0.4-4.7
	c-0.9-0.2-1.8-0.1-2.5,0.3S563.1,556.5,562.7,557.3L562.7,557.3z M552.9,554c-0.3,0-0.4-1.3-0.7-1.5c-0.3-0.1-1.6,1.2-1.1,1.4
	c2.7,0,0.4,3.3,2.5,5.1c1.7-2.2,2.9-1.1,4-2.8C557.6,553.4,554.1,554.2,552.9,554L552.9,554z M205.4,586.6c-0.1,0.7-0.1,1.4,0.1,2.1
	c0.2,0.7,0.5,1.3,0.9,1.9c1.3-0.7,2.1-0.1,2.5,1.5c2-1.6,1.2-1.2,3.7-1.8c-0.5-1-1-2-1.4-3C208.2,590.4,208.3,584.2,205.4,586.6z
	 M539.3,556c0.4,2.6-2.4,0.1-3.3,0.7c-0.1,0.7-0.1,1.4,0.1,2.1c0.2,0.7,0.5,1.3,0.9,1.9c2-1.8,2.8,0.1,4.4-0.3
	C541.7,559.6,541,555.5,539.3,556L539.3,556z M546,563.4l0.7,1.5l1.5-0.7l-0.7-1.5L546,563.4z M546,552.1l-2.2,1.1
	c0.9,0.9,1,4.2,2.5,3.3C546.5,555.1,545.7,553.4,546,552.1L546,552.1z M520,569c0.8,1.3,0,2,0.7,3.3C523.5,571.3,521.8,569,520,569z
	 M209.8,595.7l2.2-1.1l-0.7-1.5l-2.2,1.1L209.8,595.7z M196,610.2c0.5,0,1.4,1.8,1.8,1.9c1,0,2-1.4,2.9-1.4c0.8,0,1.6,1.8,2.5,1.5
	c-0.9-3.9-4.4-0.3-5.8-2.6c-0.8-1.7,0.2-2.8-1.4-4.8c-4.4,1.3-0.5,2.7-1.5,4.4c-0.7-1-2-0.1-2.9-0.4l1.8,3.7
	C194.7,612.5,195.6,610.2,196,610.2L196,610.2z M791.5,383.9c0.4-0.1,0.8,0,1.2,0.1c0.4,0.1,0.7,0.4,1,0.7c0.4-0.9,0.5-2,0.4-3
	c1.1,0.4,2.2,0.7,3.3,1.1c1.5-0.5,0.1-2,0.4-3c0.3-1,2.4-1.2,1.5-2.5c3.3-0.4,1,4.9,5.1,3c0.8,1.9-0.1,3.2-0.4,4.7
	c1.3,1.4,3.3,1.1,5.1,1.2c0.5,2.5,2,2.3,2.9,4.1c-2.7-0.4-5.3-1.3-7.6-2.7c-0.4,0.2-0.8,0.4-1.1,0.7c-0.3,0.3-0.5,0.7-0.7,1.1
	c-0.1,0.4-0.2,0.9-0.2,1.3c0,0.4,0.2,0.9,0.4,1.2c-1.8,0.5-2.6-3.7-1-4c-0.8-1-0.8,0.7-2.2,1.1c-2.1-1.8,0.3-6.3-3.2-4.8
	c-1.8,1.1,1.6,0.8,1.4,3c0.7,1.5,1.4,2.9,2.1,4.4c-0.9,0.3-1.3-1-1.8-1.9c-0.8,0.5-1.4,0.5-1.8,0c-0.8,1-0.6,2.2-0.1,3.6
	c-2,1-3.7-2.7-1.8-3.7c-1.5,0.2-1.6-3.5-3.2-3c-1.4,1.3,1.7,4.3,2.1,6.2c-2.5,1.5-1.7,3.3-4.8,3.2c-3.4-2.3-3.9-5.1-3.1-8.4
	C787.9,385.4,792.3,386.8,791.5,383.9z M790.3,390.8c-0.5-0.5-2.4,0-2.2,1.1C788.4,393.8,791.7,392,790.3,390.8L790.3,390.8z
	 M773.3,448.6c-4.1-0.7-6.4,3.6-7,6.1c2.4-2.2,3.9,1.3,4.8-1.4c0.3,1.7,3.6,0.2,1.1,0.4C768.9,452.5,774.3,450.9,773.3,448.6
	L773.3,448.6z M732.7,467.4c-0.3,1.3,0.6,3.1,0.3,4.4c1.6,0.6,4.1-1.2,6.2-2.1c-1.6-2-0.5-3-1.4-4.8
	C735.2,466.4,735.5,467.3,732.7,467.4L732.7,467.4z M778.8,440.3c0,0.1,1.2-1,0.4-1.1c-0.8-0.1-1.8,1.6-0.8,2.2
	c0.1,0,0.7-0.4,0.7-0.4c0.5,0.6,0.6,0.4,0.7-0.4C779.8,441.2,778.9,440.8,778.8,440.3z M692.5,482.2c1,1.2,1.1,4.9,3.2,3
	C697.3,483.2,693.9,481.4,692.5,482.2L692.5,482.2z M808.9,403.9l-1.5,0.7l0.7,1.5l1.5-0.7L808.9,403.9z M794.7,414.9
	c-1.1-0.4-2.2-0.7-3.3-1.1c-1.1-1.6,0.6-2.2-1-4c-1,0.7-2.8,1-2.6,2.1c1.1-0.5,0.3,0.6,0.3,0.7c0.4,0.8,1.7,1.4,1.8,1.9
	c0.1,0.4-0.9,1.5-0.8,2.2c0-0.1,1.5,0.1,0.4,0.7c-1.1,0.3-1.8-0.6-2.9-0.4c0.8,2.8,3.5,0.6,4.3,3.4
	C792.9,418.8,795,417.3,794.7,414.9L794.7,414.9z M790.2,424.3l1.1,2.2l2.2-1.1C792.8,423.8,791.7,423.5,790.2,424.3L790.2,424.3z
	 M798.2,408.8c-0.2,2.6,3.5,2.4,2.9,0.4C800,409.8,799.7,407.7,798.2,408.8L798.2,408.8z M804.6,407.4c-0.3,0-0.4-1.3-0.7-1.5
	s-1.6,1.2-1.1,1.4c2.7,0,0.4,3.3,2.5,5.1c1.7-2.2,3-1.1,4.1-2.9C809.3,406.9,805.7,407.6,804.6,407.4L804.6,407.4z M786.6,439.3
	c1,1.6-2-0.1-2.9,1.4c-0.4,0.6,0.9,1.2,0,1.8c-1.1,0.7-3.2-0.6-3,1.4c1.3,0.4,3-0.4,4.7-1.4c2.1,0.8,6.1,1.1,6.2-2.1
	C790.1,439.8,788.6,438.8,786.6,439.3z M196.1,601.1c1,2,1.7,4.3,3.2,4.8c3.1-0.7,1.8-3.1,3.3-4.3c-1.1-2.2-3.1-1.6-4.3-3.3
	c-0.5-0.8-0.9-2.1-1.8-1.9c0.4,1.4-0.5,2.3-2.2,2.9c-0.8-2.8-2.4-3.5-4.3-3.3c0.3,1.7-0.4,3.1-0.4,4.7
	C192.6,600.9,192.9,604.9,196.1,601.1z M200.3,597.3c-1.5-1.6,0.3-5.1-2.5-5.1C198.5,593.4,197.9,597.3,200.3,597.3z M198.7,607
	C200,611.7,202.1,605.8,198.7,607L198.7,607z M724.2,470.1c0.1,0.7-0.2,1.2-1.1,1.4c2,2-2.1,1.7-0.1,3.6c2.6-1.5,3.2-3.8,5.5-5.4
	c0.6,1.8-1.9,2.6-0.4,4.7c3.6-1,0.7-4.2,0.5-6.6L724.2,470.1z M188,603.2c1.4-1.9,3.4,2.6,3.3-0.7c-1.4,0.5-1.6-2.3-2.9-2.2
	c-3.1,0.5-1.6,2.7-2.6,3.9c-1.3,0.8-2-0.1-3.3,0.7c0.4,0.8,0.5,1.7,0.3,2.6c2.5-2.4,1.8-1.2,2.5,1.5c2.2,0.1,1.3-0.8,4-1
	C189.2,606.4,186.5,604,188,603.2z M190.9,605.4l-1.5,0.7c0.2,0.5,0.5,1,0.7,1.5l1.5-0.7C191.4,606.4,191.2,605.9,190.9,605.4z
	 M719.5,476.5c0.5-0.2,0.9-0.5,1.2-1c0.3-0.5,0.4-1,0.3-1.5C719.9,474.6,718.4,475.1,719.5,476.5z M710.3,483.6
	c-0.1,0.7-0.1,1.4,0.1,2.1c0.2,0.7,0.5,1.3,0.9,1.9l2.9-1.4C713.6,483.4,712,483.4,710.3,483.6L710.3,483.6z M707,486.2
	c0.2,0.5,0.5,1,0.7,1.5l1.5-0.7l-0.7-1.5L707,486.2z M697.2,479.1c-0.1,3.3,1.6,2.6,3.2,4.8c-0.8,1-0.6,2.2-0.1,3.6
	c2.6-0.5,1.7-2.2,2.9-3.2C701.6,481.8,700,478.7,697.2,479.1z M812.3,409c2.6-1.5,3.2-3.8,5.5-5.4c0.6,1.9-1.9,2.6-0.4,4.7
	c3.6-1,0.7-4.2,0.5-6.6l-4.4,2.1c0.1,0.7-0.2,1.2-1.1,1.4C814.5,407.3,810.3,407.1,812.3,409z M615.7,501.1c1.1,0.4,4.1-1.2,2.9-3.2
	C616.8,498.7,615.1,499.5,615.7,501.1L615.7,501.1z M617.3,493.1l0.7,1.5c0.7-0.4,1.2,0.2,1.8,0C619.2,493.5,618.7,492,617.3,493.1z
	 M632.5,527l0.7,1.5l1.5-0.7c-0.2-0.5-0.5-1-0.7-1.5L632.5,527z M639.2,516.1c-0.6-2.5-2.3-1.5-2.9-4.1c0.9-0.5,1.6-1.1,0.8-2.2
	c-2.6-0.2-3.6-0.2-4,1c-0.3,0.9-3.4,0.8-2.6,2.1c1.2,1.2,4-2.1,5.1-0.6C634.1,514.5,637.7,516.7,639.2,516.1L639.2,516.1z
	 M640.8,508.1c0.2,0.4,1,0.6,0.7-0.4c-2.1-3.2-1.1-4.9-3.2-6.6l-2.2,1.1C635.8,506,639.5,504.1,640.8,508.1L640.8,508.1z
	 M632.4,507.6c2.2-0.2-1.8-4.3-0.7-1.5C632.3,507.3,632,509.9,632.4,507.6L632.4,507.6z M613,491.6c0.9,0.9,1,4.2,2.5,3.3
	c0.3-1.3-0.6-3.1-0.3-4.4L613,491.6z M631.5,515.2c0.6,1.9-2.4,0.1-2.9-0.4c0.8-0.5,0.2-1.5-0.3-2.6c-2.5,1.6-3.4,1.1-4.4,0.3
	c-1.3-1.1-0.6-2-1.4-3c-0.3-0.4-2.5,0.2-2.5-1.5c-0.3-1.7,1-3.4-1-4c-1,1.6-3.2,1.7-4,2.8c-0.3,0.5,1.1,2.2-0.8,2.2
	c-0.1-0.5-0.6-1-0.7-1.5c-0.1-0.8,1.2-1.1,1.1-1.4c-0.2-1.6-1.8-2.8-2.5-5.1c-2,0.7-2,3.2-1.9,3.6c0.4,1.2,1.6,0.5,1.1,2.2
	c-0.8,2.3,1.2,2.9,2.1,4.4c-0.3,0.3-0.5,0.6-0.7,1c-0.1,0.4-0.2,0.8-0.1,1.2c0.5,0.8-0.5,1.7,0.7,1.5c-0.6-1.3,1-0.3,1.5-0.7
	c1-0.7,0.7-1.8,1.5-2.5c0.5,0.8,0.9,2.1,1.8,1.9c0.6-2.8,4.8-1.2,5.8,0.8c-3.6,1.4,1.3,5.8-4.1,6.5c-1.3-1-2-3.5-3.6-3.7
	c0,3.1,2.9,4.6,4.2,8.9c4.2-2.1,4.3-4.5,4.8-6.9c0.5,0.9,1.1,1.6,2.2,0.8c-0.6-2-1-5.2,1.5-4.4c-0.6,1.5,1,4.7,2.5,5.1
	C635.1,520.5,633.8,515.5,631.5,515.2z M625.6,499.1c-0.9,2,1.2,2.6,1.8,3.7s-0.5,1.8,1.1,2.2c2.4-1,0.5-3.5,1.2-5.1
	C628,500.3,627.6,497.3,625.6,499.1L625.6,499.1z M623.4,505.6c-0.8,2.2,0.7,2,2.1,2.6c0.7,1.5-1.6,1.9-0.1,3.6
	c2.2-0.4,0.3-1.7,0.4-3c0.1-0.6,1.3-1.3,0.8-2.2C625,507.8,624.7,505,623.4,505.6L623.4,505.6z M619.8,501.9
	c0.8,2.5,2.8,1.2,4.3,1.5C623.4,500.2,620.4,500,619.8,501.9L619.8,501.9z M657.1,503.4c0.6-2.4,0.5-2.7-1.8-3.7l2.2-1.1
	c-1.8-2.3-0.7-3.5-0.6-5.1c-1.8,1.6-2.4-0.1-4,1c0.4,0.9,0.6,1.8-0.8,2.2C653.7,499.1,654.3,504.2,657.1,503.4L657.1,503.4z
	 M671,505.3c0.4,1-1.1,1.2-1.8,1.8c-1.2,1-1.7,2.5-2.9,3.2c-2.6-0.6-2.9-2.6-2.5-5.1c-2.7,1.9-0.1,6.2-4.5,5.8
	c-1.4-1.8,0.8-5.7-0.2-8c-0.3-0.7,0-2.2,2.2-2.9c-1-1.4-0.4-2.2-0.7-3.3c0.9-0.3,0.8,0.5,0.3,0.7c0.2,1,1.4-0.2,1.8,0
	c1.4,0.8,2.8,4.5,5,3C669.2,502,667.6,506.9,671,505.3L671,505.3z M663.1,500.1c-2.2,0.4-0.7,2.2-1.1,3.3
	C663.6,502.7,664,501.6,663.1,500.1L663.1,500.1z M567.2,537.2c2.5,1.4,1.2,5.6-1.2,5.1c1.3,2.6,3.1,5.6,4.6,5.9
	c0.3-1.3,0.1-2.8,0.8-4c0.5,0.9,1.1,1.6,2.2,0.8c-0.7-0.3,0.4-1.1,0.4-1.1c-0.1-0.5-1.2-0.6-1.1-0.4c-0.3-1.3,0.5-1.8-1.1-2.2
	C569.7,540.8,569.7,534.9,567.2,537.2L567.2,537.2z M698.4,491.3c-1.7,0.7-2,1.7-1.1,3.3C699.4,494.1,697.9,492.3,698.4,491.3
	L698.4,491.3z M678.5,496.7c0.7,3.1,2.2,3.5,1.8,1.9C680.1,497.9,677.9,494.4,678.5,496.7L678.5,496.7z M690.1,492.1
	C693.6,493.2,691,488.3,690.1,492.1L690.1,492.1z M654.2,489.4c-0.2-0.5-0.5-0.9-1-1.2c-0.5-0.3-1-0.4-1.5-0.3
	c0.2,0.5,0.5,0.9,1,1.2C653.1,489.4,653.6,489.5,654.2,489.4L654.2,489.4z M643.9,518.7c0.6,1,1,2.8,2.1,2.6
	C645.3,519.4,646.3,518.4,643.9,518.7z M639.2,510.6c0.4,1.7,1.7,1.1,2.5,1.5c0.6,0.3,2,2.5,3.3,1.1c0.4-0.4,0.7-0.9,0.9-1.5
	c0.2-0.6,0.3-1.2,0.2-1.8C643.7,510.8,642,509.2,639.2,510.6L639.2,510.6z M636.5,520.3c-1.5,2.6,4,4.5,4.3,1.5
	C638.9,522.6,638.4,519.4,636.5,520.3L636.5,520.3z M626.9,525.5c0.5-0.2,0.9-0.3,1.1,0.4l1.5-0.7
	C629.8,522.8,626,524.2,626.9,525.5L626.9,525.5z M658.5,511.3c-0.4,0.1-0.8,0-1.2-0.1c-0.4-0.1-0.7-0.4-1-0.7c-1.8,2-2.6,2-4.8,1.4
	c0,2.4,0.5,4.1-2.6,3.9c-0.2,2,1.4,2,1.4,4.8c3.9-0.9,1.2-4,2.6-5.8c0.5,1.2,1.5-0.3,2.6-0.3c0.4,0,3.6,2.3,2.5-0.3
	C655.5,514.6,659.9,512.5,658.5,511.3L658.5,511.3z M677,503.1c0.5-0.2,0.9-0.3,1.1,0.4l1.5-0.7C679.8,500.4,676,501.8,677,503.1
	L677,503.1z M578.2,554.6c0.5,0.8,0.9,2.1,1.8,1.9c-0.2-0.5-0.3-0.9,0.4-1.1C580,554.6,579.4,553.8,578.2,554.6L578.2,554.6z
	 M584.3,538.7c-0.8-1.7-2.3-1.6-2.9-4.1l-2.9,1.4C579.4,540,582.2,538.3,584.3,538.7L584.3,538.7z M584.6,543.1
	c-0.3-0.4-0.5-0.8-1.1-0.4l0.7,1.5c-2.1,0.7-0.8,2.2-1.1,3.3c-0.3,1-1.6,1.5-1.5,2.5c3.1-1.5,4.6,1.6,6.6-1.4
	C587.7,544.7,586.4,546.5,584.6,543.1L584.6,543.1z M583.7,534.3c0.8,1.9,1.6,3.6,2.8,4.1c2.6-0.2,1.7-4.6-0.3-4.4
	C586.7,536.8,585.1,532,583.7,534.3L583.7,534.3z M577.9,545C578.2,540.5,574.6,544.4,577.9,545L577.9,545z M572.1,553.1
	c-0.4-0.8-1-1.5-1.8-1.9c0.4-0.2,0.6-1-0.4-0.7c0.1,0.5,0,1.1-0.3,1.5s-0.7,0.8-1.2,1c-0.4-0.5-0.7-1.4-1.4-1.1
	c1,2.5,2.6,3.1,4.7,2.3c0.9,2.1,2.3,2,2.9,0.4C574.2,553,573,553.6,572.1,553.1L572.1,553.1z M586.1,518.1c0.8,1.3,0,2,0.7,3.3
	C589.6,520.4,587.9,518.1,586.1,518.1z M565.4,532.7c0.5-0.2,0.9-0.3,1.1,0.4l1.5-0.7C568.2,530,564.4,531.4,565.4,532.7
	L565.4,532.7z M576.6,523.7c0.5,1-0.9,2-0.4,3c0.2,0.4,1.2,0.6,1.1,0.4c0.4,0.9-0.5,1.6,0.3,2.6c0.3,0.3,2-0.2,2.2,0.8
	c2.5-0.8,0.6-3.1,3.7-3.6c-0.4-0.6-0.7-1.2-0.9-1.9c-0.2-0.7-0.2-1.4-0.1-2.1C580.5,522.9,578.8,522.5,576.6,523.7L576.6,523.7z
	 M574.6,507.4l0.7,1.5l1.5-0.7l-0.7-1.5L574.6,507.4z M574.6,549.9l1.1,2.2c1.8-0.6,2.7-1.5,2.2-2.9
	C576.7,549.5,575.9,548.9,574.6,549.9L574.6,549.9z M606.4,520.5c0.5-0.2,0.9-0.3,1.1,0.4l1.5-0.7
	C609.1,517.8,605.3,519.2,606.4,520.5L606.4,520.5z M590,528.1l-1.5,0.7l0.7,1.5l1.5-0.7L590,528.1z M593.9,542.5
	c-0.8-1.3,0-2-0.7-3.3c-2.3,1.5-0.1,2.8-2.9,1.4c2.5,2.3-1.2,2.4-0.8,4c2.3-1.2,3.4,0.7,4.7,2.3c1.1-1,4.7-1.2,4.1-2.9
	C596.8,543.3,595.3,542.8,593.9,542.5L593.9,542.5z M612.6,526.3c1.1-1.7,2.3-0.7,4.1-2.9c-1.3-1.5-2.6-3-4.7-2.3
	c0.3,1.4,0.1,2.8-0.3,4.2s-1.3,2.5-2.3,3.5c-1-1.1-1.8-2.9-3.2-3c0.7,1.7-2.3-0.1-3.7,1.8c-1-1.1-1.8-2.9-3.2-3c0.1,1,0,2-0.4,3
	c-0.9,0.5-1.6,1.1-0.8,2.2c1.5-0.5,1.2-1.6,2.6-2.2c0.3,1.7,1.3,0.6,2.2,0.8c0.3,0.1,0.4,1.4,0.7,1.5c1.4,0.5,5.4-1.9,3.6,1.9
	c-1.1-0.3-1.5-2.6-3.3-1.1c-0.1,2.2,0.7,1.3,1,4c-2.2-0.8-3.1,1.5-2.9,3.2c0.9-0.3,1.4,0.8,1.8,1.9c2.5-0.5,0.4-2.7,2.9-3.2
	c1.8,1.5-0.7,4.2,2.1,2.6c1.8-1-1-2.6-1.4-3c1.4-0.9-0.6-3.1,0.8-4c1.7,1,4.7-1.8,6.6-1.4c0.8-2.4-1.4-2-2.2-4.5L612.6,526.3z
	 M590.5,516.1c1.3,1,1.9,3.9,3.9,2.6l-1.8-3.7L590.5,516.1z M615.1,525.9c0.5,0.8,0.9,2.1,1.8,1.9c-0.2-0.5-0.3-0.9,0.4-1.1
	c-0.6-0.9-1.2-1.7-2.3-0.8L615.1,525.9z M603.3,533.4c0.3-0.8-2.1-3.9-2.2-0.8C601.5,532,603.1,533.9,603.3,533.4L603.3,533.4z
	 M621.6,528.2l-2.2,1.1c0.5,0.8,0.9,2.2,1.8,1.9C620.6,529.9,622.7,529.7,621.6,528.2L621.6,528.2z M605.9,508.7
	c-0.2-0.2-2,1.1-2.2,1.1c-0.2,0-1.9-2.2-2.9-2.2c-1.5,0.1-2,2-2.6,2.1c-0.4,0.1-1-1-1.8,0c-0.4,0.4-0.2,2.3-0.4,3
	c-0.5,1.2-0.8,2.2-2.2,2.9c0.8,1.7,2.3,1.6,2.9,4.1c1.7-1.3,2.2-2.6,3.6,0c2-0.9,0.9-2,2.9-1.4c-0.1-0.5,0-1.1,0.3-1.5
	c0.3-0.5,0.7-0.8,1.2-1c0.6,0,3.7,0.5,2.9-1.4c-1.4-0.2-2.9-2.8-2.9-4.1C604.7,509.6,606.5,509.4,605.9,508.7L605.9,508.7z
	 M794.4,412.4c0.3-0.8-0.2-5.3-2.5-3.3C792.8,409.9,792.8,413.3,794.4,412.4L794.4,412.4z M595.7,521.7l-1.5,0.7l0.7,1.5l1.5-0.7
	L595.7,521.7z M591.9,531.1c-1.4,2.8,1.1,3.3,2.8,5.9c4.7-1.8,2-5.3-0.6-6.9L591.9,531.1z M228,690.8l-1.5,0.7
	C222.4,693.2,229.2,692.8,228,690.8z M823.6,340.3C820,339.2,822.6,344.1,823.6,340.3L823.6,340.3z M827,301.7
	c-0.5-2.1-1.6-2.5-3.3-1.1C824.2,302.8,825.9,301.2,827,301.7L827,301.7z M827,340C830.6,341.1,827.9,336.2,827,340L827,340z
	 M814.7,341c-1.1,0.2-1.9-0.4-3.3,0.7l1.1,2.2C814.3,343.3,815.2,342.4,814.7,341L814.7,341z M810.6,348.1c-1.2,1.3,2.7,4.2,2.5,1.5
	C811.5,350.1,813.3,347.1,810.6,348.1L810.6,348.1z M820.5,346.4c-0.8-2.5-2.8-1.2-4.3-1.5C816.9,347.4,819,346.1,820.5,346.4
	L820.5,346.4z M800.6,338.8l1.5-0.7l-0.7-1.5l-1.5,0.7C800.2,337.9,800.3,338.3,800.6,338.8z M833.5,360.4c0.6-1.6-0.8-3.7-2.9-2.2
	C831.2,359.9,832.1,360.8,833.5,360.4L833.5,360.4z M796.4,349c2-1.1,2.4-2.8,4.4-3.9c-1.4-1.3-0.6-3.3-1.4-4.8
	c-0.5-0.9-1.4-0.6-2.2-0.8c-2.1-0.5,1.1-6.2-2.5-3.3c-0.5,1.4,0.8,3.5,1.7,5.5c-0.8,0.5-0.2,1.5,0.3,2.6
	C795.6,345.4,795.8,347.1,796.4,349L796.4,349z M833.1,354.1l-1.5,0.7l0.7,1.5l1.5-0.7C833.6,355.1,833.4,354.6,833.1,354.1
	L833.1,354.1z M827.5,364.8c1.1-0.3,1.6,1.2,2.5,1.5c1.1-0.4,2-1.1,2.6-2.1c-1-1.3-2.4-2.2-3.9-2.6c-0.6,0-1.6,1.2-2.2,1.1
	c-1.2-0.2-0.9-2-2.5-1.5c0,0,0.4,0.7,0.3,0.7c-0.2,0.6-1.1,1.4-1.5,0.7c-0.4-1.2-1.6-2.6-0.7-3.3c0.9,3.1,2.6-1.7,5.5-1.7
	c-1-1.8-1.8-3.5-1.4-4.8c-2.3,1.5-4.9,1.8-6.6,3.2c-1,0.9-0.6,2.8-2.2,2.9c-1.6-0.6-2.2-4.1-4.7-2.3c1,2.8,2.6,5.5,4.6,7.7
	c0.5,0.6,0.5,1.7,1.1,2.2c0.5,0.5,4.6,0.1,3.9,2.6c2.7-0.1,2-1.2,5.1-2.5C830.3,368,825.4,365.6,827.5,364.8L827.5,364.8z
	 M859.7,349.2c-0.7-3.3-3.2-1.3-5.1-1.2C855.5,351,857.6,350.2,859.7,349.2L859.7,349.2z M849.9,278
	C851.4,282.7,853.5,276.9,849.9,278L849.9,278z M279.7,523.5l-0.7-1.5l-1.5,0.7l0.7,1.5L279.7,523.5z M853.8,284.2
	c-0.3-0.9,0.5-2.3-1.1-2.2C853.1,282.9,852.3,284.3,853.8,284.2L853.8,284.2z M859.8,343.8C856.3,342.7,858.9,347.6,859.8,343.8
	L859.8,343.8z M802.5,329.8c-0.3-1.1-1.8-2.6-1.4-1.1C801.4,329.7,802.9,331.3,802.5,329.8L802.5,329.8z M814.7,364.6
	c-0.1,1.9,2.8,3,2.2,0.8C815.9,365.8,815.6,364.4,814.7,364.6L814.7,364.6z M847.3,351.6c-0.4-1.6-1.8-0.8-2.5-1.5
	c0.2,0.1,0.6-1.6-0.7-1.5c-3.2,0.7-6.9,1.7-6.6,5c2.2-1.7,1.9,1,1.8,1.9C842.7,353.1,843.3,353.3,847.3,351.6z M796.2,265.8
	c1.1-0.2,1.9,0.4,3.3-0.7c-0.3-0.7-0.7-1.5-1.1-2.2C796.7,263.5,795.8,264.4,796.2,265.8z M800.3,263c0.6,1,1,2.8,2.1,2.6
	C802.9,264.1,802.1,262.4,800.3,263L800.3,263z M839.9,358.8c-0.9,0.5-0.6,1.5-1.8,1.8c-0.4,0.1-1.5-1.4-2.2-0.8
	c0.2,0.7,0.5,1.3,0.9,1.9c0.4,0.6,1,1,1.6,1.4c-0.5,0.4-0.6,1,0,1.8c-0.9,0.5-1.6,1.1-0.8,2.2c1.8-1,3.5-1.8,4.7-1.4
	c0.1-1.5-1.2-2.3-0.7-3.3c0.6-1.2-3.3-3.8,0.1-3.6C841.2,358.6,840.5,358.5,839.9,358.8L839.9,358.8z M846.1,356.7
	c-1,0.3-0.8-0.6-0.7-1.5c-1.7,0.8-2,2.4-3.7,3.6c0.9,0.2,1.8,0.6,2.5,1.2c0.7,0.6,1.4,1.3,1.8,2.1c1-0.7,2.8-1,2.6-2.1
	C847.1,360.9,847.1,357.6,846.1,356.7L846.1,356.7z M849.6,394.8C853.1,395.8,850.5,391,849.6,394.8L849.6,394.8z M271.8,529.3
	c-0.2-3.7,4.6,1.6,4.4-2.1c-4.2,1.3,1.9-1.4,0.4-3c-0.8,0.4-1.7,0.5-2.6,0.3C276,526.8,267.6,528.4,271.8,529.3z M834.3,403.9
	c-0.3,2.4,3.5,1,2.5-0.3C835.9,404,835.4,403.1,834.3,403.9z M836.2,394.2l0.7,1.5l1.5-0.7l-0.7-1.5L836.2,394.2z M851.6,360.4
	c0.6,0.4-1.2,2-0.8,2.2C851.6,362.9,854.7,360.4,851.6,360.4L851.6,360.4z M797.8,327.5c-0.7,1.7,1.3,3.6,2.9,4
	C800.2,329.7,800.5,326.7,797.8,327.5L797.8,327.5z M866.5,349l-2.2,1.1c0.6,1.4,3.8,3.9,3.6,1.9C865.4,352.5,867.8,350,866.5,349
	L866.5,349z M787.9,430.9c0.1-1.4,1.8-7.3-2.1-6.2C787.8,426.8,784.3,430.2,787.9,430.9L787.9,430.9z M861.5,343.8
	C862.8,348.5,864.8,342.6,861.5,343.8L861.5,343.8z M858.2,353.6c-1.3-2.6-1.7,2.7-2.5,0.3c-0.7-2.6-3.9-2.4-5-4.8
	c-0.8-1.6-0.8-2.2-0.3-4.4c-1.8,1-2,2.6-2.6,3.9c1.1,0.3,0.9,1.3,2.5,3.3L848,353c0.8,3,2.6,3.1,3.6,5.5c2.2-0.5,3.5-4.4,5.9-2.8
	c-0.5,0.4-0.6,1,0,1.8c-0.8,0.5-2.1,0.9-1.8,1.8c2.7,0.9,1.6-1,2.6-2.1c0.9-1,1.7-1.2,2.6-2.2c-0.2-0.5-0.6-0.9-1-1.2
	C859.3,353.6,858.7,353.5,858.2,353.6L858.2,353.6z M803.2,331.2C802.2,334.7,807,332.1,803.2,331.2L803.2,331.2z M804.2,354.8
	C807.7,355.8,805.1,351,804.2,354.8L804.2,354.8z M808,360.5c-0.2-0.5-0.5-1-0.7-1.5l-1.5,0.7l0.7,1.5L808,360.5z M806,342.6
	c0.1-0.7,0.1-1.4-0.1-2.1c-0.2-0.7-0.5-1.3-0.9-1.9l-2.2,1.1C803.5,341.5,804.3,343.2,806,342.6L806,342.6z M835,369.3
	c-2-1.6,0.2-4.7-2.1-4.4C832.6,365.6,833.3,369.7,835,369.3L835,369.3z M806.1,347.6c-2.9,0.3-6.8,0-5.2,4.3
	C803.8,352.1,807.9,351.5,806.1,347.6L806.1,347.6z M775.5,335.6C774.5,339.1,779.3,336.5,775.5,335.6L775.5,335.6z M791,343.5
	c0.3,1.1,1.8,2.6,1.4,1.1C792.2,343.4,790.7,341.9,791,343.5L791,343.5z M766.7,339.8c0.3,2,3.6,0.2,2.2-1.1
	C768.4,338.2,766.5,338.7,766.7,339.8z M772.5,342.4c1.4,2.3,3.7,2.1,5.8,2.6c-2.1-2.5-1.1-3.2-3.2-4.8
	C774,340.6,773.1,341.4,772.5,342.4L772.5,342.4z M870,344.8c-0.3,2.4,3.5,1,2.5-0.3C871.6,344.9,871,344,870,344.8L870,344.8z
	 M832.8,372.1c0,0-1.1,0.8-0.4,1.1c-0.2,0.1-2.3-0.5-2.6,0.3l0.4,0.7c-0.8,0.2-1.7,0.3-2.6,0.3c-0.2,0-2.1-0.8-2.2-0.8
	c-0.5,0.2-0.7,1.8-1.8,1.8c-1.1,0-2-2-3.3-1.1c-2.5,0.5-2.3,2-4,2.9c-0.9-2-2.9-4.3,0.4-4.7c-1.1-1.6-3.1-0.6-4.3-1.5
	c-2.5,1.9,1.2,2.6,0.3,4.4c-1.1-0.2-2.3,0-3.3,0.7c0.6,1.8,1.5,2.7,2.9,2.2c-0.3-1.7,0.4-2.1,1.9-1.8c1.6,2-0.2,2.8,1.4,4.8
	c-1.6,0.6-1.7-2.3-3.6-1.9c-0.3,0-1.2,0.8-1.5,0.7c-1-0.5-1-2.6-2.1-2.6c-0.8,0.6-1.8,1.1-2.8,1.2c-1,0.2-2.1,0.1-3-0.3
	c-1.3-4.2-1.3-12.5-6-12.5c-1.7,1.6,2.1,1.8,2.1,4.4c-1.7,1.6-3.4,3.3-2.6,5.8c-0.6,0.4-1.2,0.8-1.9,0.9c-0.7,0.2-1.4,0.2-2.1,0.1
	c-1.3,1.4-1.7,3.1-0.1,5.5c-1,1-1.8-0.3-2.6,0.3c-0.8,0.6,0.2,1.7-0.8,2.2c-0.8,0.4-1.7,0.5-2.6,0.3c-0.5-0.3-1-0.7-1.4-1.1
	c-2.8,1.4,0.8,6.3-3.4,8c0.8,0.6,1.4,1.4,1.8,2.3c0.4,0.9,0.7,1.9,0.7,2.8c-1.3,0.1-3.4,2.7-4,1c-1.5,0.7,0,2.5-2.2,2.9
	c-0.2-4.6-4.7-0.5-3.6-3.7c-1.3,0.4-1,1.3-1.8,1.8c-1.1,0.6-1.8-0.2-2.5,0.3c-0.8,0.6-0.3,1.7-0.8,2.2c-1.1,1.3-3.4,0.7-4,2.8
	c-2.6,1.1-4.3-0.5-6.9,0.6c-0.5,0.8,0,2-1.5,2.5c0.1-0.7,0.1-1.4-0.1-2.1c-0.2-0.7-0.5-1.3-0.9-1.9c-3.9,1.1-3.5,3.3-1.2,5.1
	c-1.2,0.8-4,1-2.2,2.9c-1.2,1.3-2.3-0.5-3-0.4c-2,0.3-4,3.5-4.7-0.4c-0.7,1.6,0.4,3.8-0.1,5.5l-4.4,2.1c1.3,3.3,3.7,2.2,3.6,5.5
	c-3.3,1.1-1.1,4.1-3.7,5.4c1,3,2.5,4.6,4.3,5.2c2.5-1.8,1.9-4.6,6.3-5.7c0.6,0.8,1.1,1.8,1.2,2.8c0.2,1,0.1,2.1-0.3,3
	c-1-0.1-1.6-1.3-2.9-0.4c-0.8,1.2,0.7,1,0.7,3.3c0.9,1,2.6-0.5,2.9,2.2c2-3,3.9-1.2,6.2-0.3c1.3-1-0.8-3.1,1.9-3.6
	c-2.9-0.6-0.5-6.2-4.7-4.1c-0.3-1,1.1-1.4,1.5-0.7c3.7-0.7,3.1-4.8,6.2-3.9c0.8,1.3,1.5,2.8,0,3.6c-1.3,0.7,1.2,2.8-0.8,4
	c0.9,1.4,3.3-1.4,4,0.8c1.8-0.6-0.2-2.5,1.1-3.3c1.4-1.1,1.9,0.4,2.5,1.5c1.7-0.8,2.8,0.2,4.8-1.4c1.7-0.6-0.9-2.8-1-4
	c2.5-0.7,0.6-3.1,3.7-3.6c1.1,2.7,6.3,2.7,5,6.6c1.4,1.3,3.1,1.6,3.9,4.4c0.2,1.5-3.5,1.6-2.9,3.2c-2.2-0.7-4.1-2.3-6.5-2.3
	c-1.3,1.8,0.5,4.6,0.6,6.9c-1.7,1.5-2.2-0.7-3.6-0.1c-2,2-5.6-0.1-5.9,2.8c-1.5,0.7-1.9-1.6-3.6-0.1c0.5,1.6,1.3,2.2,2.5,1.5
	c0.5,1.6-1.3,2.4-1.9,3.6c-2,1.8-3.1,0.7-4.4,0.3c0.1-1,2.2-0.6,0.8-4c-0.4-0.5-1.1-0.4-1.4-1.1c-2.2,0.2-0.6,1.8-2.2,2.9
	c-1.1,0.7-2.9,0.2-3.3,0.7c-0.6,0.8-1.1,1.6-1.5,2.5c0,1.3,1.6,0.9,1.8,1.9c0.1,0.5-1.5,1.4-0.8,2.2c3-0.8,3.1-2.6,5.5-3.6
	c0.7,1.3,1.4,1.2,2.1,2.6c-0.1-0.2-0.6,0.7-0.4,1.1c0.2,0.4,1.1,0.7,1.1,0.4c0.3,1.8-1.1,2.2-0.8,4c-1.1,0.4-2.1,0.9-1.8,1.8
	c-1.7,0.7-1.8-3-2.8-4.1c-0.9-1.6-1.4,1.8-3.7,1.8c0.7,1.5,1.4,3,2.1,4.4c-1.2,0.4-2.5,0.4-3.7,0c-1.2-0.4-2.2-1.2-2.9-2.3
	c-0.6,0.8-1.4,1.4-2.3,1.8c-0.9,0.4-1.9,0.7-2.8,0.7c-1.3-2.2-2.1-5.6,0.4-4.7c-2.2-3.6-5.3,2.8-8.4,3.2c-2-1.2-4.1-2.3-5.4-5.6
	c-0.8,1-0.6,2.2-0.1,3.6c-1.3,0.8-2.2,1.7-2.2,2.9c-1.1,0.3-1.3-2.1-2.5-1.5c-1.3-1.2,0.5-2.3,0.4-3c-0.1-1.2-2.6-3.2,0.1-3.6
	c-0.3-1.5-3.1-3.9-0.3-4.4c0,2.8,1.3,3.5,3.2,4.8c1-1.3,1.3-2.8,2.6-3.9c-0.7-0.7-2.2-1.2-1.8,0c-1.8,0-2.7-2.7-5.1-1.2
	c0-1.9-1.7-0.4-2.2-0.8c-1.1-0.7-1-2.5-2.1-2.6c-2.4,1.8,3.2,6.4-0.9,7.6c-0.3-0.6-1.2-0.3-1.4-1.1c-0.2-1,0-2,0.4-3
	c0.6-1.8-1.3-1.7-2.5-5.1c-1.4-1.2-3.2-1.2-5.5-0.1c-0.8-3-2.8-2.5-3.6-5.5l2.9-1.4c-0.8-3-1.3-6.4-5.4-3.7c-0.4-3.4-1.6-1-4-0.8
	c-0.6,0-1.3-1.4-2.2-0.8c-2.3,0.4-0.8,2.2-2.2,2.9c1.1,2.3,2.9,2.1,4.3,3.4c1.4,3,2.3,5.7-1.2,6.9c-0.6-0.4-1.2-0.8-1.6-1.4
	c-0.4-0.6-0.7-1.2-0.9-1.9c-3.7,0.5-3.8,1.7-6.3,3.9c-0.7-2.5-2.6-2-3.2-4.8c-2,1.1-2.5,2.8-1.2,5.1c0.9,1.6,2.6,0.7,4.4-0.3
	c1.6,2.2,1.1,3.7,1.7,5.5c-0.9,0.4-1.8-1.6-2.5-1.5c-1.3,0.1-2.7,1.6-4.4,2.1c-2.4,0.7-3.6-0.4-5.5-0.1c-0.8,1-0.6,2.2-0.1,3.6
	c-0.5,0.6-2-0.8-2.2-0.8c-1.3,0.6,0.8,3.7-2.6,3.9c-2.1-1-3.2-4.8-5.8-4.5c-0.3-1.1,1.5-1.5,2.6-2.1c-2-1.8-3.9-3.9-6.9-3
	c-1.4,1.1,1.3,0.9,1.4,1.1c0.3,0.5-0.3,1.6,0.3,2.6c1.3,1.8,3.5,3.7,4.6,5.9c-0.6,1.2-0.5,2.7-1.9,3.6c1.2,0.6,2,2.4,3.2,3
	c2.2-0.5,1.5-1.7,3.3-2.5c1.6-0.7,4.5,1.3,4.7-1.4c1.1-0.5,1.1,1.2,1.8,1.8c0.7,0.6,2.1-0.1,2.5,1.5c2.8-0.2-0.6-2.6,2.2-2.9
	c-0.6-1.1-1-3-2.1-2.6c-0.6-1.4,2.2-1.7,1.1-3.3c0.9-0.2,1.2,1.2,2.2,0.8c0.5-1.4,0.4-2.9,2.6-2.1c0.5-0.8,0-2,1.5-2.5
	c1.1,1.4,0.4,2.2,0.7,3.3c0.5,1,1.6-0.3,2.6-0.3c0.4,0,1.9,0.8,2.2,0.8c0.8-0.3,1.5-0.6,2.2-1.1c1.2-0.4,2.2,0.2,3.3-0.7
	c1.9-1.4,1.8-2.5,2.3-4.7c-0.5-2.5-2.7-0.4-3.2-3c1.7-1.5,2.1,0.8,3.3,1.1c1.7-1.5,2.1,0.8,3.3,1.1l2.9-1.4c0.5,1,1,2,1.4,3
	c1.6,2-2.1,2.1,0.3,4.4c0.8,1.3,2.7-0.7,3.6,0.1c1.4-1.2,1.7,0.9,2.9,0.4c0.3,0.9-1,1.3-1.8,1.8c0.6,1,1.1,2,0.3,2.6
	c0.8,1.3,2.7-0.7,3.6,0.1c2,1.8,1.4,2.4,1.4,4.8c-1,0.1-2,0.4-2.9,0.9c-0.9,0.5-1.7,1.2-2.3,2c-0.6,0.8-1.1,1.8-1.3,2.7
	c-0.2,1-0.3,2-0.1,3.1c-2.2,1-3.5-0.4-5.1-1.2c-3,2.2-3.4,5.3-6.3,7.6c-0.1-1.3,0.2-2.4,0.1-3.7c-0.4-0.7-1.2-0.1-1.8,0
	c-0.6-0.9-0.7-2.1-1.4-3c-0.7-0.8-1.6-0.3-2.2-0.8c-0.8-0.6-0.6-2.5-1.8-1.9c-0.2-1.3,2-1.7,0-3.6c-0.7,0.6,0.2,1.7-0.8,2.2
	s-2.1,0.9-1.8,1.8c-2.2,0.6-3.1-2.9-4.7-4.1c-2.5,0.6-1.7,0.2-3.7,1.8c-0.4-1.1-0.9-2.1-1.8-1.9c-2.3,1.6,1.6,1.7,1.8,1.9
	c0.4,0.4-0.6,2.1,0.7,1.5c1.5,1.7-0.7,2.2-0.1,3.6c2.8-0.2-0.6-2.7,2.2-2.9c1.4,0.7,3.1,0.4,3.9,2.6c-1.6,0-1.5,1.4-1.8,1.8
	c-0.2,0.2-1.4,0.4-1.5,0.7c0,0.1,0.4,0.7,0.3,0.7c-1.3,1-3.1-1-1.8,1.8c-0.5,0.3-1,0.4-1.6,0.4c-0.5-0.1-1-0.4-1.4-0.8
	c-0.5,0.8,0.1,2-1.5,2.5c1.5,2,4.7,1.3,4.7-1.4c2.1-0.2,4.5,4.2,3.9,6.3c-3,0.7-9.8,3-13.9,1.3c0.6,3.6,2.9,2.2,4.7,2.3
	c0.7,1.5,1.4,3,2.1,4.4c-2.3-0.6-2.9-0.6-2.6,2.1c-2.2-0.1-3.3-3.3-5-4.8c-2.5,0.7-2.1,3-4.4,2.1c-1.8,1,0.3,3.4-1.5,4.3
	c-2.2,1-3.4-0.7-5.5-0.1c-1-1.4-0.4-2.2-0.7-3.3c-0.9-1.4-3.3,1.3-4.4,0.3c0.2-3.3-2-3.1-3.6-5.5c-1.8-2.7,2.9-0.5,0.8-4
	c-0.8-0.9-0.8,0.7-2.2,1.1c-1.7-4.9-7.3-6.4-7.1-11c2.4-2.3,2.8,1.3,4.7,0.4c0.5-0.4,0.4-1.1,1.1-1.4c-1.4-2.4-3.7-2.1-6.2-1.6
	c-1,0.8,1.3,1,0,1.8c-0.4,0.8-1,1.4-1.8,1.8c-0.6-1.2-1.2-2.4-1.8-3.7c3.3-0.5,0.7-3,2.6-3.9c-1.9-1-1.5,1.4-4,1
	c0.3-0.9-0.5-2.2,0.4-3c3.1,1.5,3.5-3.2,5.2-4.3l-1.8-3.7c-1.6,0.5-2.2,1.3-1.5,2.5c-3.6,0.8-1.2,3.6-4.1,4.7
	c0.3-1.4-0.1-2.2-1.8-1.9c-1.3,0.3-1.1,3.9,0.7,3.3c0.9,0.9,1,4.2,2.5,3.3c0.2,1.7-1,2.9-2.6,3.9c2.4,2.4,4.6,5,6.4,7.8
	c-0.9,0-2,1.5-2.9,1.4c-0.3,0-1.4-2-1.8-1.8c-1.7,0.8,0.3,2.4-1.1,3.3c-0.7,0.4-1-0.7-1.4-1.1c-1.8,0.4,0.3,2.5-1.1,3.3
	c-0.4,0.2-1,3-0.8,4c0.2,1.3,2.2,1.5,1.4,3c1.3,1.4,3.6,0.3,4.7,2.3c1.1,1.4-0.4,1.9-1.5,2.5c2.7,2.7,4.4-2.5,7.3-1.7
	c1.4,2.1,0.9,3.6-1.5,4.4c0.3,1.7-0.8,3,0.6,5.1c-1.4,0.2-2.8,0-4.1-0.5c-1.3-0.5-2.5-1.2-3.5-2.2c-1-1.8,0.1-2.8-0.3-4.4
	c-1.5-1.5-2.3-5.2-4.7-4.1c-0.3-0.5-0.4-1-0.4-1.6c0.1-0.5,0.3-1,0.8-1.4c-0.9-1.4-3.1,0.6-3.9-0.8c-0.7,0.6,0.2,1.7-0.8,2.2
	c1.2,2.3,3.8,0.9,5,3l-2.9,1.4c-0.8-0.3-2.1-1.5-1.1-2.2c-1-0.7-2.2-0.6-3.6,0c-0.6-2.5-0.3-4.6-0.6-6.9c1.5-0.9,2.6-0.5,3.3,1.2
	c1.4-1.3-1.7-4.3-2.1-6.2c-1.5-2.1,1-2.9,0.4-4.7c-0.4-0.5-1.1-0.4-1.4-1.1c-1.9,0-0.4,1.7-0.8,2.2c-0.6,1-2,1.4-2.6,2.1
	c-0.3,0.4,0.4,0.6-0.4,1.1c-0.6,0.3-0.3,1.2-1.1,1.4c-2.4,0.5-4.9,1.3-6.9,0.6c-1.1-0.5-0.4-2.6-0.3-2.6c-0.3-0.3-1.8-0.1-1.8,0
	c-0.5-0.9,0.7-2.2-1-4c-1,0.7,0.8,2.3-0.4,3c-2.9,2.4-3.7-1-5.4-1.9c-1.8,2.4-3.4,1.1-5.5-0.1c-0.7,0.6,0.2,1.7-0.8,2.2
	c-1,0.8-1.6-0.2-2.5,0.3c-0.9,0.5-0.8,3.9-2.6,2.1c-1,1.3-0.1,3.2-0.4,4.7c-3.7,1.2-6.3-0.6-8.7-3.1c-0.8,1.2-0.7,2.6,0.3,4.4
	c-2.5-0.4-3.5,3.4-5.8,1c-1.5-0.1-1.2,2.3-2.2,2.9c-1.2,0.7-1.6,0-2.6,0.3c-0.2,0.1-7.9,3-8.1,3.9c-0.4,1.8-0.3-0.4-2.9,1.4
	c-1.6,1.1-3.1,2.4-4.4,3.9c-0.9,1.1-0.4,2.7-2.9,3.2c-0.3,0.1-1.3-0.2-1.1-0.4c-1.4,0.8-0.3,3-2.2,2.9c-0.8-1.2-2.1-1.1-3.6,0
	c-1.8,1,0.1,3.3-0.4,4.7c-2.1-0.3-4.9,1.4-6.5-0.5c-0.6,3-5.4,0.5-4.4,3.9c-1.1-0.5-2.8,1.1-3.3-1.1c-5.1,1.9-10.9,7-15,4.5
	c-0.5,1.6-2.2,1.4-3.3,2.5c-0.8,0.7-0.3,1.5-0.8,2.2c-0.7,1.2-3.2,1.3-1.9,3.6c-2,1.3-2.2,1.5-4.8,3.2c-2.1,1.4-3.1,4.4-5.5,3.6
	c-2.2-0.7-1.1,0.8-3.7,1.8c-0.1-0.2-0.3-0.3-0.5-0.3c-0.2-0.1-0.4-0.1-0.6,0c-1.2,0.5-1.6,0-2.5,0.3c-0.6,0.2-2.9,3.9-4.8,3.2
	c0,0-0.3-0.8-0.4-0.7c-1.1,0.6-2,3-4.7,1.4c-1,0.9-0.7,7.2-3.7,3.6c0,0.9-2.2,5.1,0.7,3.3c0.7,1.4-2.4,1.3-2.9,1.4
	c-1,0.2-3.4-0.1-4.4,0.3c-1,0.4-1.5-0.8-2.2-0.8c-1.2,0-2.6,2-3.3,0.7c-0.1,0.9-1.3,1-1.8,1.8c-0.7,1-0.5,2.2-1.1,3.3
	c-0.7,1-2,1.4-2.6,2.1c-0.6,0.8-0.7,1.7-1.5,2.5c-6.4,2.3-12.5,5.5-18,9.6c-0.7,1-0.6,2.2-0.1,3.6c-1.2,0.8-4,1-2.2,2.9
	c-3.2,0.1-3.5,1.8-6.2,2.1c-2-0.7-0.3-2.2-2.1-4.4c-2.9-1.3-6.9,4.3-8.8,6.1c-1.5,0.2-2.8,0.7-4,1.6c-1.2,0.9-2.1,2.1-2.6,3.4
	c-1.6,0.5-2.4-1.3-4-0.8c-3.8,1.8-7,5.7-10.6,4.2c-3,2.9-6.3,5.5-9.9,7.5c-1.7,1.1-2.9,3-4.4,3.9c-1.1,0.7-1.7-0.2-2.6,0.3
	c-1.3,0.8-2.4,2.6-3.7,3.6c-0.6,0.4-4.9,1.5-5.1,2.5c-0.5,2-0.7,0-2.9,1.4c-2.2,1.4-2.8,3.7-6.6,5c-2.2,0.7-2-0.1-3.7,1.8
	c-0.2,0.2-1.4,0.4-1.5,0.7c-0.3,1.3-0.4,0-1.5,0.7c-3.1,2-6.7,3.6-9.2,5.3c-1.5,1.1-0.7,1.8-2.2,2.9c-1.2,0.8-2-0.2-3.3,0.7
	c-1.6,1.1-0.7,1.6-2.2,2.9c-2.7,2.3-6.5,3.2-8.8,6.1c-0.4,1.1-0.8,2.2-1.1,3.3c-2,1.8-2.8-0.1-4.4,0.3c-1.6,0.4-1.3,2.1-2.2,2.9
	c-0.9,0.8-2.6,1-3.7,1.8c-1.3,0.9-1.8,2.6-4.8,3.2c-0.7,0.1-1.1-0.4-1.8,0c-1.2,0.6-1,1.2-1.8,1.8c-1.8,1.3-3.6,1.7-5.5,3.6
	c-0.5,0.5-0.5,2-0.8,2.2c-1.7,1.4-4.3,2.5-6.3,3.9c-2,1.4-7.4,6.2-9.9,7.5c-1.1,0.6-2.9,0.4-4,1c-2.2,1.3-4.7,2.6-7,4.3
	c-0.2,0.1-1.4,0.5-1.5,0.7c0,0.2,0.4,0.6,0.4,0.7c-0.2,0.3-1.4,0.4-1.5,0.7c-0.1,0.5-0.3,1.3-1.1,1.4c-0.3,0.1-1.4-0.2-1.1-0.4
	c-1,0.5-0.5,2-1.5,2.5c-1.2,0.7-2.1-0.2-3.3,0.7c-1.6,1.2-2.4,3.7-4.1,4.7c-2.8,1.7-5.5,0.9-7.7,2.8l-1.4-3c-3,2.2-4.9,1.4-6.5-0.5
	c-0.2,0.1-0.3,0.3-0.3,0.5c0,0.2,0,0.4,0.1,0.6c0.1,0.2,0.2,0.3,0.4,0.4c0.2,0.1,0.4,0.1,0.6,0c-1.4,1.7,2.8,2,1,4
	c1.5,2,1.6-2.4,4-1c0.7,2.8-6,4.1-6.9,0.6c-1.4,0.9,1.3,3.3,0.3,4.4c-1.7-0.9-2.2,1-3.7,1.8c-2.7,1.4-7.1,2.7-8.4,5
	c-1.6,1.9-3.6,3.5-5.9,4.6c-0.9-4.5,8-2.8,6-8.3c-2.1-1.6-1.9,2.5-4.1,2.9c0.6-1.6-1.2-4.1-2.1-6.2c-0.8,1-0.2,2.6-0.8,4
	c-0.1,0.3-1.4,0.4-1.5,0.7c-0.2,0.7-0.4,4.7-1.9,3.6c-2.5-3.6,1.7-1,0.8-4c-2.7-1.7-1.1,3.2-3.7,3.6c-1.3-1.3,0.5-1.5,0.8-2.2
	c0.1-0.4-0.8-1.1-0.7-1.5c0.1-0.4,1.3-0.3,1.5-0.7c0.3-0.7-0.6-1.8-0.3-2.6c0.3-0.7,1.7-0.6,1.1-1.4c-1.8-2.1-1.5,0.3-4,1
	c-0.5-1.4-1.6-1.1-2.1-2.6c1.2-1.4,3.1-2.6,2.3-4.7c-0.6-1.7-1.7-2.1-3.3-1.2c-0.9,1.5,0.2,2.1-0.1,3.6c-0.2,1-1.7,1.9-1.1,3.3
	c-1.9,0.1-3.5-0.6-4.3-3.3c0.6-0.5,2.1,1.7,2.5,1.5c2.3-1,0.3-6.5-2.4-7c0.4-1.8,1.3-1.4,0.8-4c-0.2-1.1,0.8-1.8,0.4-3
	c-2.5,0.5-1.5,2.3-4,2.9c0.2-3.5-2.6-2.6-4.3-5.2c-3.1,1.7-4.2-1-6.2,2.1c-0.6-1.7-1.7-2-3.3-1.1c0-4-1.7-4.9-1.3-8.4
	c-1.4,0.5-1.1,1.6-2.6,2.1c0.5,1.4,1.6,1.1,2.1,2.6c-2,1.8-2.4-1.2-4-0.8c-1.2-1.4,0.9-1.7,0.4-3c-2.8,0.4-2,2.2-0.8,4
	c-2.6,1.1-3.7-2.3-5.4-3.7c1.7-0.4,1.7-1.4,2.6-2.1c0.6-1.3-0.6-3.2-0.3-4.4c0.1-0.3,1.4-0.4,1.5-0.7c0.2-0.9-0.9-1.9,0.8-2.2
	c0.1,0.7-0.4,1.1,0,1.8c0.8-0.5,1.4-0.5,1.8,0c0.9-2.4,1.7-1.6,2.9-3.2c-1-2.3-3.3-1-3.9-4.4c1.9-0.8,2.9,0.3,3.7-1.8
	c-0.8-0.5-2.1,0-2.5-1.5c2.7-0.9,4.1-2.2,2.3-4.7c-1.7-1.7-1.4,2-3.3,0.7c-0.6-3.7-5.2-4.6-6.2-1.6c-1.6,0.1-0.7-1.3-1.1-2.2
	c1.1-0.6,2.9-1,2.6-2.1c2,0.5,0.9-0.5,2.9-1.4c0.3,0.9,0.8,1.2,1.4,1.1c1.9-0.6-2-3.2,1.1-3.3c-0.1,0.9-0.2,1.7,0.7,1.5
	c1.3,1.9-2.4,2-1.9,3.6c0.8,1.3,2.7-0.7,3.6,0.1c0.6-1.6-0.5-3.8,2.3-4.7c-0.7-0.2-1.5-0.4-2.2-0.8c-1.4-0.8-3.3-3.2-6.2-1.6
	c-1.8-2,1.2-2.4,0.8-4c-0.2,0.3-1.7-0.5-1.8,0c0,0.2,0.8,1.4,0.7,1.5c-0.9,0.7-2.4-0.5-3.7,1.8c-0.5-1.6,1.3-2.4,0.8-4
	c4.6-2.3,5.9-5.7,9.6-8.2c-0.4-1.1-0.9-2.1-1.8-1.9c-0.5-1.6,3.1-1.7,2.9-3.2c1.1,1.8,0.8-1.6,2.9-1.4c0.5,1.4,1.6,1.1,2.1,2.6
	c0.6-1,1.5-1.8,2.6-2.1c-0.5-0.6-0.5-1.7-1.1-2.2c-0.1-0.1-2-0.5-1.8,0c-0.6-1.9,2.6-0.3,1.1-3.3c-0.7-2.1-1.9,3.3-2.9-0.4
	c2.9-2,4.5-0.1,6.2,1.6c0.8-1.1-0.1-2.9-0.3-4.4c-0.6-0.8-2.7,0.1-2.2,1.1c-1,0.3-2-1.7-1.1-2.2c-1.2-1.5-3.3-3.1-2.5-5.1
	c1.8,0,2.9,2.1,3.9,4.4c0.7-1,0.6-2.2,0-3.7c2.8-0.5,1,1.2,2.5,3.3c1.9-2.2,1.1-2.5-0.6-5.1c0.1-3,1.9,3.8,3.6,1.9
	c1.6-0.5-1.2-2-1.8-1.9c0.2-2.2,1.8-3.9-0.6-6.9c1.6-1.8,1.7,1.3,2.5,1.5c1.4,0.3,3.3,2.8,5.4,3.7c1.7,2.8,0.6,4.7,2.8,7.7
	c4.9-1.9-6.1-7.9-0.2-9.9c-0.9-0.4-1.9-0.5-2.9-0.4c-1.4-2.1,1.1-2.9,0.4-4.7c-0.7-1.7,1.1-2.5,2.9-3.2c0.8,1.9,1.8,2.9,3.2,3
	c1.5-1.7-0.5-4.6-1.7-7.3c-3,1.4-2.4,4-5.6,5.4c-2-3.1,5.1-3.1,3.4-6.1c-0.8-1-1,1.3-1.8,0c-0.7,0.2-1.3,0.5-1.9,0.9s-1,1-1.4,1.6
	c-0.9-0.3-1.4-1.8-2.5-1.5c-0.3-1.8,6.1,0.8,3.7-3.6c1.8,0,3.9-0.8,5.1,1.2c1.7-0.6,2-1.7,1.1-3.3c1.6,0.2,2.3,2.7,3.6,3.7
	c2.6-2.6-1.5-4.7-0.6-6.9c3.2-1.7,1.9,2.8,1.8,3.7c0.6,1.7,2.8-0.9,4-1c2.8-0.1-2.7,1.8-2.2,2.9c1.3,0.8,2.8,0.7,3.3-0.7
	c0.4-1.1,0.6-2.3,0.5-3.5c-0.1-1.2-0.5-2.4-1.1-3.4c-0.3-1.4-1.2-1.1-2.2-0.8c-1.8-2.8,2.2-5.7,4.8-5c1.2,1.8-4.4,1.3-1.9,3.6
	c1.8,1,0.4-2.3,2.9-1.4c0.3-0.1,0.5-0.2,0.7-0.4c1.4-1,2.4-3.7,4.8-3.2c-0.5-2.1-1.6-2.5-3.3-1.1c-1.9-2.5-0.8-3.9-2.1-6.2
	c2.4-0.5,4.2,0.6,7.3-1.7c0.2,2.8,2.6-0.6,2.9,2.2c-2,1-2.1-0.5-2.9,1.4c0.9,1.6,3.3-1.2,4.8-1.4c0.1,0.5,0,1.1-0.3,1.5
	c-0.3,0.5-0.7,0.8-1.2,1c1.2,2,2.9,0.2,2.9-1.4c1.8-0.6,2.6,1.2,2.1,2.6c2.1-0.5,2.5-1.6,1.1-3.3c1.5-1.2,3-3.3,5.1-2.5
	c1.1,1.5-0.4,2.4-0.1,3.6c0.1,0.4,1.1,0.6,1.4,1.1c0.8,1.3,0,3.5,1.4,4.8c0.6-0.5,1.7-0.5,2.2-1.1c0.5-0.6-0.2-1.5,0-1.8
	c1.1-1.2,2.8-0.7,3.3-2.5c-2.8-0.9-4.5,3.9-6.5-0.5c4.1-1.7,8.7-5.2,10.9-1.7c2.2-1.2-0.7-5.2-2.9-4.1c-0.9-1.1-0.1-1.7,0.8-2.2
	c-2.8-0.7-5.4-1.9-9.1-0.1c-1.1-2.1-1.9-5-3.5-5.5c-2.5,0.5-0.4,2.7-2.9,3.2c-0.8-1.2,0.3-2.5-1.1-2.2c-0.6-2.4,2.9,0.2,3.3-2.5
	c-0.2-2.8-2.6,0.6-2.9-2.2c2.4-2.1,2.6,1.8,4.3,1.5c1.1-0.7-2.9-3,0.8-4c1.6,2,0.5,3,1.4,4.8c4.2-0.8-0.1-4.5-0.6-6.9
	c1.9-0.1,3.8-0.4,5.5,0.1c-1-1.1-1.2-4.7-2.8-4.1c-0.3-0.5,0.5-1.3,1.1-1.4c0.6-0.1,1,0.4,1.1,0.4c0.6-0.1,2.8-0.7,2.3-1
	c1.1,0.4,1.2,1.5,1.3,2.9c-1.1,0.3-1.3-2.1-2.5-1.5c-2.7,2.4,1.8,2.1,2.5,5.2c1.3,0.3,1.9-1.8,1.8-1.8c0.9-0.2,1.2,1.3,2.2,0.8
	c0.4-1.1,0.8-2.2,1.1-3.3c2.1-1.5,3.4-0.3,5.1-0.7c-0.5-2.7-2.2-1.8-3.6-1.9c-0.3-1.7,0.4-2.1,1.8-1.8c0.7-3.4,3.9-2.2,5.9-4.7
	c-0.4-2.4-2-1.4-2.5-3.3c0.5-1.3,1-0.8,2.2-1.1c0.7,1,2.3-0.8,2.9,0.4c0.5-0.4,0.4-1.1,1.1-1.4c-0.4-1.7-1.4-1.7-2.1-2.6
	c-0.8-0.5-2.1,0-2.5-1.5c3.8-2.7,6.1-1.1,9.1-1.7c0.7-0.4,0.1-1.2,0-1.8c0.9-1.3,2.5,0.5,2.9,0.4c0.2-0.1,0.3-0.2,0.5-0.3
	c0.6-0.7-0.5-1.9-0.1-2.6c0.3-0.5,1.1-0.7,1.8-0.9c-0.1-0.1-0.2-0.3-0.3-0.4c0.4-0.2,0.8-0.4,1.2-0.5c0-0.1-0.1-0.2-0.1-0.3
	c0.2-0.1,0.3-0.1,0.5-0.1c0.2,0,0.3,0.1,0.5,0.2c1.3-0.2,2.5,0.1,4.3-1.1c0.1,0.3,0.1,0.6,0.1,0.9c1.2-0.5,1.7,1.1,2.9,0.5
	c0.2-0.1,0.3-0.3,0.4-0.5c-0.2-0.4-0.4-0.9-0.5-1.3c0.3-0.1,0.6-0.2,0.9-0.3c0.2-1.2,0.5-2.1,2-1.2l0.2,0c0.1-0.1,0.2-0.2,0.3-0.4
	c-0.7-0.5-1.6-1.2-2.6,0c-0.1-0.5,0.1-1,0.3-1.4s0.7-0.7,1.2-0.8c0.1,0.3,0.2,0.6,0.5,0.8s0.5,0.4,0.8,0.5c0-1-0.3-2,1.4-2.3
	c0.5,3.3,2.9,0.7,3.9,2.6c2.4-1.5-3-3.5-1-4c-0.6-1.8-2.5,0.2-3.3-1.1c-1.4,0.5-3.3,2.5-3.6-0.1c1.8-1,3.5-1.9,4.4-0.3
	c1.8-0.6-0.2-2.5,1.1-3.3c1.9-2,2.3,0.3,3.6,0c1.9-0.1,0.5-1.5,0.8-2.2c0.3-0.7,1.8-0.6,1.1-1.4c1.8,0.3,3.9,1.5,5.7-1.1
	c-0.4,0-0.9-0.1-1.3-0.2c-0.1-1.7,1-2.3,2.3-2.8c0-0.6-0.1-1.2-0.4-1.7c1.7-1.5,2.2,0.6,3.5,0.1l0.1-0.1c-0.5-1.3-2.1-1.3-1-2.2
	c1.8-1.1,2.5-1.1,2.3,0.2c0.7,0,0.9,0.2,0.9,0.6c0.5,0.1,1.1,0.3,1.5,0.6c0.2-0.1,0.3-0.2,0.5-0.2c0.2,0,0.4,0.1,0.5,0.2
	c0.1-0.3,0.2-0.6,0.2-0.9c-0.1-0.1-0.3-0.2-0.4-0.4c-0.1-0.1-0.2-0.3-0.2-0.5c0-0.2,0-0.3,0-0.5c0-0.2,0.1-0.3,0.2-0.5
	c0-0.1-0.1-0.3-0.2-0.4c2.6,0.2,2.7-2.3,5.5-1.7c0.6-1.6,2.1-3,3.3-4.3c0.4-0.2,0.9-0.4,1.3-0.4c0.2-0.2,0.3-0.4,0.3-0.6
	c0-0.2,0-0.5-0.1-0.7c-0.5-1.5,1.5-0.1,2.1-1.3c-0.1-1.1,0.1-2.1,2-2.5c0.2,0.6-0.3,0.8-0.7,1.2c0.5,0.1,1,0.5,1.4,0.9
	c1.6-0.4,2.8-3,4.4-0.9c0.2-0.3,0.3-0.6,0.4-0.9c0.1-0.3,0.1-0.6,0-0.9c-1.7,0-3.3-0.5-4.7-1.4c-0.8,0.5-0.1,1.6,0.5,1.4
	c0.9,1.2-1.8,0.8-2.3,0.1c-0.8-1.2-1.1-2.3-2.7-2.8c2.6,0,0.1-2.4,0.3-3.3c0-0.2,1.2-0.3,1.4-0.5c0.1-0.2-0.7-1.1-0.5-1.4
	c0.5-1.5,0.4-3.2-0.3-4.6c1.5-0.5,4.7,6.2,4.1,2.3c2.3-0.2,0.6,2.4,0.4,3c2.2,1.8,1.9-2.1,3.8-2.3c0.3,2.4,0,4.5-2.4,5.7
	c0.4,1.3,1.4,1.1,1.8,2.5h0.1c-0.5-0.9-0.7-1.6,1.2-2.5c0,0.5,0.1,1,0.3,1.5c0.6-0.2,1.3-0.3,1.9-0.4c0.7-0.6,0.7-1.4,1-2.2
	c-0.1-0.1-0.1-0.3-0.2-0.4l0.5-0.2c0.2-0.2,0.4-0.4,0.7-0.5c0.3-0.1,0.6-0.2,0.9-0.2c0.4-0.3,0.7-0.6,0.5-1.1h0.1
	c0-0.2-0.1-0.3-0.1-0.5c0.1-0.3,0.2-0.5,0.4-0.7c0.2-0.2,0.4-0.4,0.7-0.5c0.3-0.1,0.5-0.1,0.8-0.1c0.3,0,0.5,0.1,0.8,0.2
	c1.6-1.1,0-1.5,1.2-2.9c0,0,1.5-1.4,1.1-1.2c0.4-0.2,2,0.7,1.9,0.8c1-0.7,1-2.4,1.9-3.1c2.7-2.2,6.9-2.3,9.9-4.8
	c-0.1-1.3-2.4-3.7-1-4.3c-0.6-1.2-2.5,0.5-3.3-0.3c-0.8-1.8,0.6-1.8-1.1-2.7c-1-1.4-0.7,1.3-2.3,0.1c-0.2-1.3-1-1.1-1.9-0.8
	l-1.1-2.7c-0.7,0.1-0.9,0.4-1,0.8c0.1,0.1,0.1,0.2,0.1,0.2l-0.1,0.1c0.1,0.5,0.2,1,0.5,1.5c-0.4-0.1-0.9-0.2-1.2-0.5
	c-0.3-0.3-0.6-0.7-0.7-1.1c-0.1,0-0.1,0-0.2,0c-0.6,0.2-0.4,1.1-1.1,1.4c-1.2,0.6-2.5,1.1-3.7,1.8c-0.4,0.2-0.8,0.5-1.3,0.8
	c1.3,0.5,2.5,1.9,1.9,3.3c-1.9,1.3-3.1-0.8-3.1-2.5c-1.4,0.9-2.9,2-4.5,3.1c0,0,0,0.1,0,0.1c-0.6,0.9-1.4,1.5-2.4,1.8
	c0.5,3.2,2.6,2.6,3.9,3.9c-1.3,0.8-1.5,2.6-3.1,2c-1.8-0.8-0.1-1.4-1.4-3.4c-0.4-0.5-1-0.8-1.6-1l-0.6,0.5c-0.4,0.3-1.1,0.4-1.5,0.7
	c-0.6,0.5-1.6,1.3-2.6,2.1c0,0-0.1,0.1-0.1,0.1c0,1,0.2,2.1,0.6,3.1c-1.2,0.4-1.8-0.6-2.3-1.8c-0.4-0.1-0.7-0.1-1.1,0.1
	c-0.2,0.1-0.3,0.2-0.4,0.4c0.1,0.6,0.5,1,1.2,0.8c-0.4,1.9-1.9,0.2-3.1,2c0-0.4-0.1-0.8-0.3-1.1c-0.5,0.2-1,0.4-1.5,0.7l-0.1,0.1
	c0.9,0.8,1,3.4,2.3,3.3c0.4-0.3,0.7-0.7,0.8-1.2c0.1-0.5,0-1-0.2-1.4c1.7,0.2,0.5,1.5,1.1,2.7c0.7,1.5,3.3,2.1,3.5,4.9
	c-1.4,0.2-3.7,2.6-3.9,0c-2.5,0,0.4,2.4-2.2,2.4c-1.4-0.5-1.6-3.1,1-3.5c-0.3-0.7-0.5-1.4-0.8-2c-1.1-1-2.7-0.6-4.6,0.3
	c-0.2-1.3-1-1.1-1.9-0.8c-0.1-0.1-0.2-0.2-0.2-0.3c-1,0.3-1.9,0.8-2.8,1.3c-1.6,1-2.8,2.8-4.4,3.9c-0.5,0.3-2.7,1-4.3,1.7
	c0.8,1.1,1.2,3.1,2.4,3.5c1.2-0.4,1.1-1.4,2.4-1.8c0.9,1.3,0.3,2,0.4,3c-0.8,0.1-1-1.2-1.9-0.8c-2,1.5,2.2,4.4,0.4,6.9
	c-3.2,0.7-3.7,2.5-6.5,3.4l-1.4-3.4c1.8-1.8,2.2-1.1,4.7-1.9c-1-2.9-1.9-2.4-3.5-1c-0.7-1.2-1.1-2.6-1.1-3.9
	c-2.1,1.5-6.1,3.2-7.5,4.7c-0.2,0.2-1.4,0.4-1.5,0.7c-0.4,1.7-1,0.5-2.2,1.1c-0.5,0.3-1,1.3-1.8,1.8c-2,1.3-3.7,3.1-5.9,4.7
	c-3.2,2.3-7,3.7-9.9,5.7c-1.6,1.1-2.9,3-4.4,3.9c-3.2,2.1-6.7,2.8-9.2,5.3c-0.8,0.8-0.6,1.8-1.5,2.5c-0.9,0.7-2.6,1-3.7,1.8
	s-1,1.4-1.8,1.8c-1.1,0.5-1.8-0.2-2.6,0.3c-1.4,0.9-2.8,1.8-4,2.9c-0.2,0.1,0.3,0.7-0.4,1.1c-0.3,0.1-2.1,0.8-2.2,1.1
	c-0.3,1.3-1.3,1.2-2.6,2.2c-3.2,2.3-10.8,6.5-15.4,9.2c-1-1.3-3.1,0.8-3.6-1.9c-2.1,1.2-3-0.6-5.1,0.7c-0.9-3.1,3.5-5.1,3-8.7
	c1.9-0.8,1.7-2.2,2.9-3.2c-0.6-1.2-1.2-2.5-1.8-3.7c-1.6-1.8-4.6,0.3-6.5-0.5c-1.2-2.4-3.4-3.1-5.8-4.5c-0.6-0.4-1-1.5-1.8-1.9
	c-1.4-0.7-1.1,0.2-2.9-2.2c-0.4-0.4-0.9-0.8-1.4-1.1c-1-0.6-1.1-1.4-2.2-2.6c-1.4-1-2.4-2.4-2.8-4.1c-1.5-0.3-2.5-2.2-3.9-2.6
	c-1.6-6.6-6.7-8.3-9.6-12.5c-2.1-3.1-3.7-6.5-6-10.7c0.2-0.6,0.8-0.9,1.1-1.4c0.5-0.7,0.9-1.3,1.2-2c-0.1-0.3,0-0.7,0.1-1
	c0.2-0.3,0.4-0.6,0.7-0.7c-1.1-1.3-3.1-0.7-4.5-1.4c-1.3-2.5-2.5-4.4-5.8-4.7c0.2-1,0.1-2.1-0.4-3c-0.8,0.2-1.2,0.6-1.1,1.2
	c-2-1.2-1.9,0.3-4.2-0.7c-0.2-0.7,0.6-0.9,1.1-1.2c0-1.5-1.8-1.1-2.2-1.5c-0.6-0.7-0.5-2-1.1-2.7c-0.3-0.4-3.7-0.7-1.5-1.8
	c-0.9-1.7-0.8,1.4-2.7,1.1c-1.2-2,1.6-2.7-0.7-3.7c-0.8-1.9-1.2,2.4-1.9-0.8c-0.6,1.2-1,0.7-2,0.8c-0.3-1.3-3.3-2.6-1.6-4.1
	c-0.6-1.4-2.2-0.1-2.4-2.2c-0.6,0.3-0.2,1-0.1,1.6c-2.8-0.4-4-4.6-6.4-6.1c-5.7,2.3-9.7,7.6-14.7,8.3c-1.2,0.2-2,0.5-2.6-0.5
	c-1.5,0.9-2.1,2.1-4.5,2.6c-1.2-0.7-2-2.4-3.4-2.6c-1.2-1.7,0.8-1.9,0.3-3.3c-1.9-0.9-3.2-3.1-4.9-4.3c-1.7,1.3-2.1-0.2-3.7,0.7
	c-0.6-1.1-3.4-3.3-5-2.7c-1.2,0.4-1.3-1.9-3.1-1.9l-2.7-6.8c-1-0.3-1.2-2.4-2.9-1.2c-1.1-2.5-1.8-5.1-3.7-7.2
	c-0.2-0.2-0.6,0.3-1-0.4c-0.1-0.2-0.1-0.5-0.3-0.7c-0.6-0.7-2.3-3.5-3.5-4.9c-0.2-0.2-0.3-1.3-0.5-1.4c-1.6-0.5-2.6-4.1-4.1-6.2
	c-0.4-0.5-0.9-0.4-1.2-1.1c-0.9-1.7-1.4-3.8-2.2-5.4c-0.5-1-1.2-0.9-1.5-1.8c-0.6-1.5-0.1-1.9-0.4-3c-0.7-3-2.4-4.6-2-7.1
	c1.5-0.4,1.6-1.8,2.8-2.7c1.2-0.9,1.8-0.7,3.1-2c0.3-0.3,0.6-1.7,0.8-1.9c1.9-1.5,3.7-1.5,5.8-3.1c0.9-0.7,2.4-2,3.5-3
	c0.6-0.6,1.4-1,2.4-1.8c0.6-0.5,1.5-1,2.4-1.8c0.4-0.3,1.6-0.9,3.1-2c1-0.7,0.7-0.4,1.1-1.2c0.5-1.1,2.6-1,3.1-2
	c0-0.1-0.3-0.6-0.3-0.7c2.3-1.5,5.5-2.4,6.9-4.3c1.4-1.9,6.1-3.3,8.9-5.2c0.7-0.9,1.4-1.7,2.2-2.5c1.4,0.8,0.4-0.7,1.1-1.2
	c1.7-1.3,3.5-1.5,5.1-2.9c0.2-0.2,1.3-0.3,1.4-0.5c0.3-1.1,1.2-1.1,2.4-1.8c1.4-0.8,2.9-2.6,4.2-3.3c0.9-0.5,2.3,0.1,2.7-1.1
	c1.6,0,1-1.8,1.5-2.2c0.8-0.8,3.2-1.7,4.5-2.6c1.2-0.9,3.4-1.4,5.8-3.1c1-0.7,0.7-0.4,1.1-1.2c0.4-0.8,3.7-2.3,4.6-4.2
	c-2.3-1.3-0.7-3.6-2.9-5.2c-1-0.6-2.3-0.6-3.5-1c-0.2-0.8-0.6-1.1-1.2-1.1c-0.7-1.9-2.1-3-3.3-4.2c-1.7-2-3.4-4.8-6.1-5.4
	c-0.6-1.8-1.2-3.5-2.6-4.5c-0.8-0.6-0.8-1.5-1.8-2.4c-0.5-0.5-1.6-0.5-1.9-0.8c-0.4-0.5-0.3-1.6-0.8-2c-0.3-0.3-0.6,0.3-1-0.4
	c-0.4-0.7-1.5-0.4-1.9-0.8c-0.6-0.8-1.2-1.6-1.8-2.4c-0.9-1-2.5-2.7-1.9-4.7c-3.3-3.3-7.6-4.2-9.2-11.3c2-0.2,0.8-1.9,2.2-2.4
	c-1.7-1.2,0.3-2.4,0.3-3.3c0-1.3-1.1-3.2-1-4.3c0.2-1.6,2.5-2,0-3.9c1.4,0.6,3.5-0.6,5.4-2.2c0.8-0.6,1.8-2,2.8-2.7
	c0.4-0.3,1-0.2,1.3-0.5c0.4-0.3,0.6-1.7,0.8-1.9c0.6-0.4,1.5-0.4,2-0.8c1.8-1.5,7.3-4.8,9.8-7.1c0.2-0.2,1.3-0.3,1.4-0.5
	c0.3-1.1,1-0.8,3.1-2c1.2-0.7,2.4-2.3,3.5-3c1.5-1,3.2-1.4,4.5-2.6c0.2-0.2,1.3-0.3,1.3-0.5c0.4-1.1,0.1-0.2,0.7-0.3
	c-0.2,0,1.9-1.2,3.1-2c1-0.6,1.7-1.4,2.2-2.5c2.2-0.2,4.2-1.6,5.8-3.1c0.2-0.2,1.3-0.3,1.4-0.5c0.4-1.3,4.8-2.9,6.9-4.3
	c0.6-0.4,1.6-1.1,2.4-1.8c0.2-0.3,0.4-0.6,0.4-1c0.5-0.3,1,0.6,1.6,0.1c0.1-0.1-0.1-0.7,0.4-1c3.1-1.8,6-2.4,8-5.6
	c0.7,0.1,2.1-1.4,2.7-1.1c0,0,0.3,0.7,0.3,0.7c0.3-0.1,1.2-1.1,1.8-1.5c1.4-1,2.9-2.5,4.2-3.3c3.3-1.9,7.1-3,10.6-5
	c2-1.1,3.8-2.4,5.6-3.8c0.2-0.2,1.3-0.3,1.4-0.5c0.3-1.1,1.2-1.1,2.4-1.8c1.3-0.7,2.8-1.4,5.2-2.9c1.2-0.7,2.3-2.3,3.5-3
	c1.9-1.1,4-1.4,6.1-2.5c1.8-0.9,5.3-3.3,8.3-4.9c0.2-0.1,1.3-0.4,1.4-0.6c0.5-1.6,1-0.2,2-0.8c1-0.6,1-1,1.8-1.5
	c0.8-0.5,5.1-1.2,5.4-2.2c0-0.1-0.3-0.6-0.3-0.7c0.2-0.2,1.3-0.3,1.4-0.6c0.5-1.7,1.1,0,2-0.8c0.8-0.6,0.6-1.7,1.5-2.2
	c2.4-1.4,5.6-2,8.1-3.3c1.1-0.5,1-1,1.8-1.5c1.2-0.8,2.8-0.9,4.1-1.6c1.4-0.8,4.2-2.1,7.2-3.7c1-0.5,0.9-1.1,1.8-1.5
	c1.7-0.9,3.8-1.4,5.4-2.2c1.1-0.5,0.9-1,1.8-1.5c1.3-0.7,2.8-0.9,4.1-1.6c2.1-1.3,7.2-3.4,11.2-5.3c1.1-0.5,0.9-1.1,1.8-1.5
	c1.5-0.8,3.2-1,4.7-1.9c1.3-0.7,1-1.7,3.1-2c0.4-0.1,1,0.4,1,0.4c1.3-0.4,1.1-1.3,2.4-1.8c2.2-0.7,3.9-0.4,6.8-2.7
	c0.2-0.3,0.4-0.6,0.4-1c0.6-0.3,2.2,0.1,2.3-0.1c0.4-1,1-0.8,3.1-2c1.4-0.8,3.8-1.9,6.5-3.4c0.2-0.1,1.3-0.4,1.3-0.5
	c0.6-1.9,3.4,0.6,4.1-1.6c0.4-1.4,2.2-1,4.5-2.6c1.6-1.1,5.9-3,9.2-4.5c1.1-0.5,0.9-1.1,1.8-1.5c1.8-0.9,4.2-1.1,6.1-2.5
	c0.2-0.2,0.6-1,0.4-1c1.2-0.5,1.8,0.2,2.9-0.4c1.2-0.6,2.1-2.1,3.5-3c3.6-2.1,8.6-3.2,12.9-5.2c0.2-0.1,1.3-0.4,1.4-0.5
	c0.5-1.5,0.9-0.3,2-0.8c0.5-0.2,0.4-0.9,1.1-1.2c2.5-1.2,5.7-1.5,8.1-3.3c0.2-0.2,0.6-1,0.4-1c0.6-0.3,1.8,0.1,2.9-0.4
	c1.2-0.6,0.9-1,1.8-1.5c6.1-3.3,13.1-5.3,19.7-7.9c6.3-2.5,12.8-4.8,19-7.6c1.1-0.5,0.9-1,1.8-1.5c4.9-2.7,10.6-4.6,15.6-6.3
	c0.2-0.1,1.2-0.6,1.4-0.5c1.3,0.7,1-0.2,2-0.8c3.2-1.8,7.6-2.8,10.8-4.4c0.2-0.1,1.3-0.4,1.4-0.5c0.4-1.4,0.9-0.5,2-0.8
	c2.5-0.7,4.7-2.6,7.5-3c1.7-0.2,0.5,0.2,2.7-1.1c1.3-0.8,4.1-2.3,6.1-2.5c1.7-0.1,0.4,0,2.7-1.1c0.4-0.2,0.9-0.4,1.3-0.5
	c1.4-0.2,0.8,0,2-0.8c0.6-0.4,1.3-0.6,2-0.8c1.1-0.4,1.4,0.2,2.3-0.1c1.5-0.5,3-2,4.5-2.6c-0.2,0.1,0.6,0.5,1,0.4
	c4-1.3,8.8-3.7,12.9-5.2c1-0.4,1.5,0.2,2.3-0.1c0,0,0-0.7,0.4-1c0.4-0.2,1.8,0,2.9-0.4c1.4-0.6,1.6-1.4,2.4-1.8
	c1.5-0.6,2-0.1,2.9-0.4c3.3-0.9,6.3-2.8,9.5-3.8c1.1-0.4,1.4,0.2,2.3-0.1c2.9-1,6-2.6,8.8-3.5c1.1-0.4,1.4,0.2,2.3-0.1
	c2.8-1,5.4-2.3,8.1-3.3c1.1-0.4,1.4,0.2,2.3-0.1c5.7-2,11.5-4.5,17.2-6.1c1.5-0.4,2.4-0.6,5-1.2c0.2-0.1,1.2-0.6,1.4-0.5
	c1.6,0.9,0.5-0.4,2.7-1.1c1.1-0.3,1.4,0.1,2.3-0.1c1.5-0.3,3.1-1.5,4.7-1.9c3.7-1,10.3-2.5,15.7-3.9c1.8-0.5,3.9-1,5.7-1.5
	c1.1-0.3,1.4,0.1,2.3-0.1c2-0.6,4-1.9,6.1-2.5c1.6-0.4,3.7-0.2,5.3-0.6c3.2-0.7,5.8-2.2,9.1-2.9c1.7-0.3,4.4-1.4,7.7-2.3
	c1.4-0.4,3.5-1,6.4-1.8c1.8-0.5,4.2-0.4,6-0.8c0.9-0.2,1.8-0.9,2.7-1.1c1.6-0.4,2.9-0.7,5.7-1.5c1.6-0.5,1.9-0.3,4.3-1
	c1.9-0.5,4.1-0.4,6-0.8c2.3-0.6,3.2-1.3,5.7-1.5c1.9-0.4,3.8-0.9,5.7-1.5c1.6-0.5,3.3-0.9,5-1.2c0.2,0,0.3,0.6,1,0.4
	c0.2-0.1,0.4-0.2,0.7-0.3c0.9,0,1.7-0.3,2.9-0.4c0.8-0.1,1.8-0.3,3-0.4c0.5,0,0.9,0.4,1,0.4c2.3-0.4,4.7-1.7,7-2
	c0.1,0,0.3,0.6,1,0.4c1.6-0.6,3.3-1,5-1.2c0.2,0,0.3,0.6,1,0.4c0.2-0.1,0.4-0.2,0.7-0.3c0.9,0,1.7-0.3,3-0.4c0.4,0,0.7,0.2,1,0.4
	c1.2-0.2,2.2-1.2,3.4-1.4c0.2,0,0.3,0.6,1,0.4c0.2-0.1,0.5-0.3,0.7-0.3c0.7,0,3.2-0.1,4.6-0.3c0.4-0.1,0.9-0.6,1.4-0.5
	c0.4,0,1.6,0.8,1.9,0.8c2.2-0.1,4.2-1.2,6-0.8c0.5,0.1,2.8-0.5,3.9,0c1.8-0.9,3.7-1.4,5.7-1.5c0.7,1.9,1.9,3.6,3.5,4.9
	c0.8,0.6,0.7,1.4,2,3.1c0.5,0.6,1.5,0.4,1.9,0.8c1.5,1.5,1.3,4.1,3.5,4.9c1.2,1.7-0.8,1.9-0.3,3.3c2,0.6,2.9,3.6,4.5,5.3
	c-2.1,1-1.4,3.2-0.1,5.6c-1.3,1-1.3,2.5-3.5,3c0.2,1.7,1.7,0.5,2.2,1.5c-0.9,0.7,0.3,0.6,0.5,1.4c0.7-0.3,0.2-1,0.1-1.6
	c1.6-0.3,1.6,3.2,2.6,4.5c-2.9,0,1.1,3.1-1.9,3.1l0.8,2c0.1,2.7,3.3,0.5,4.1,2.3c0.4,0.9,2.1-0.2,2.9-0.4l1.4,3.4
	c-0.3,0.6-2.3,1.2-2.4,1.8c-0.2,1.1,1.9,2.6-1.2,2.9l1.4,3.4c0.3,0.7,1.1,0.1,1.6,0.1c0.9,0,2,0.9,3.5,1c0.3,1,0.7,2,1.5,1.8
	c-0.3,2.1-0.9,4.1-4.3,4.9c-1.5,0.5,0.7,2.5,0.7,3.7c-3.6-0.1-8.4,0.6-10.4,3.4c-0.5,0.6-1.1,1.1-1.8,1.5c-1.2,0.9-2.4,1.7-3.8,2.3
	c-0.2,0.1-1.3,0.4-1.4,0.6c0,0.2,0.3,0.7,0.3,0.7c-0.5,0.2-1.1-0.4-1-0.4c-0.8,0.5-2.4,2.3-3.5,3c-1.4,0.8-3.4,1.1-4.7,1.9
	c-1.6,0.9-2.5,2.3-4.2,3.3c-0.8,0.5-5.8,1.4-6.1,2.4c0,0.1-0.5,1.5-1.1,1.2c-1-0.5-0.3,0.1-1.4,0.5c-1.2,0.5-2.7,0.6-4.1,1.6
	c-0.3,0.2-0.5,1-0.4,1c-0.5,0.3-1-0.5-1.6-0.1c-1.3,0.7-3.2,1.7-5.8,3.1c-1.5,0.8-4.2,2.2-7.2,3.7c-3.7,1.8-9.3,5.7-14.1,8
	c0.5,0.9,3.4-0.3,4.6-0.3c0.4,0.1,0.7,0.2,1,0.4c2.4-0.4,4.7-1.7,7-2c0.2,0,0.3,0.6,1,0.4c0.2-0.1,0.4-0.2,0.7-0.3
	c0.4,0.1,0.7,0.2,1,0.4c1.8-0.2,2.2-1.3,3.7-0.7c1.2,0.5,7.3-2.6,9.1-2.9c0.1,0,0.4,0.6,1,0.4c0.2-0.1,0.4-0.2,0.7-0.3
	c0.8,0,1.5,0,2.3-0.1c0.6-0.1,0.8,0.4,1,0.4c2.3-0.3,4.7-1.7,7-2c0.1,0,0.3,0.6,1,0.4c0.2-0.1,0.4-0.2,0.7-0.3
	c1.2,0,2.5-0.3,3.7-0.7c1.5-0.4,3.5-1,5-1.2c0.2,0,0.3,0.6,1,0.4c0.2-0.1,0.4-0.2,0.7-0.3c1.5,0,3-0.2,4.5-0.4c-0.3,0,0-1.2,0.4-1
	c0.4,0.3,0.8,0.7,1.2,1.1c0.5-0.1,0.7-1.3,1.8-1.5c0.4-0.1,3.1-1,3.7-0.7c1.2,0.6,1.8-0.6,4.3-1c0.1,0,0.3,0.6,1,0.4
	c0.3-0.1,3.1-1,3.7-0.7c0.1,0.1,0.2,0.7,0.3,0.7c0.3,0,1.1-0.7,1.4-0.5c2,1.1,7.5-1.5,11-2c1.8-0.3,4.1-0.7,5.6,0.1
	c1.7-0.4,1-1.8,3.1-2c0.5,0.7,0.5,2,1.1,2.7c0.6,0.7,1.2-0.2,1.6,0.1c0.4,0.3,0.5,2.5,1.1,2.7c1,0.4,1,1.1,1.8,2.4
	c0.1,0.2,0.4,1.3,0.5,1.4c1.3,0.4-0.5,2.9,2.4,2.2c1.2,1.7-0.8,1.9-0.3,3.3c0.1,0.9,1.2-0.1,1.6,0.1c1,0.6,0.6,3.1,2.4,2.2
	c0.4,1.7-1.2,2.3-2.4,1.8c0.3,2.3,2,1.5,2.3,3.8c0.4-0.8,0.6-1.7,0.5-2.6c3.6,0.5-2.6,4.4,1.2,5c0.4,2.2-1.7-0.1-2.7,1.1
	c0.5,3.1,2.5,3,4.3,3c0.4,2.6,1.8,2.7,3.4,2.6c0.1,0.6-0.4,1-0.1,1.6c0.3,0.6,1.7,0.5,1.9,0.8c0.6,1-0.2,1.4,0.1,2.3
	c-0.1-0.3,0.8,0.3,1,0.4c0.3,0.4,0.3,1,0.5,1.4c-0.6,1-2.3,1.7-1.9,3.1c-1.1,0.1-0.1-1-0.8-2c-1.5,0.4-2.2,0.9-2.4,1.8
	c-0.1,0.4,0.3,2,0.1,2.3c-0.6,1.2,0.4,0.2,0.5,1.4c0,0.2-0.8,0.3-0.4,1c1,1.9,1.1,1.4,1.4,3.4c0.2,1.2,1.1,2.2,1.4,3.4
	c0.4,0.6,1,1.1,1.7,1.4c0.7,0.3,1.4,0.4,2.1,0.3c0.7,2.8,2.5,2.8,3.1,5.8c0.4,0.7,1.5,0.1,2.3-0.1c0.7,3.2,3.4,5.9,3,7.5
	c1.8,1,4.6-0.2,7.3-1.4c1.1,1,2.9,0.1,3.8,1.6c1.3-0.8,2.2-0.7,2.6,0.5c-1.3,0.9-2,0.3-2.9,0.4c-1.4,0.2-0.2,2-0.5,2.6
	c-0.4,0.6-3.9,0.6-2.2,2.4c-0.6,0-0.9-0.3-1.6-0.1c-0.7,0.2-2,2.7-3.1,2c0,0-0.2-0.7-0.3-0.7c-0.8,0.3-1,1.8-1.6-0.1
	c-0.8,0.6,0.1,1.9,0.4,3c0.7,0.9,0.8-0.6,2-0.8c0.8,0.3,1.1,1.7,2.2,1.5c0.8,1.5-1.7,1.5-1.2,2.9c1.2,0.7,2.8,0.5,3.4,2.6
	c0.6-1.1,2.2-1.7,2.9-2.7c-1.4-1.4,0.9-4.4-2-3.1c0.2-0.2,0.7-1.8,0.8-1.9c0.3-0.1,0.5-0.2,0.8-0.1c0.3,0,0.6,0.1,0.8,0.3
	c0.9-0.7,0.8-2.6,1.8-1.5c1.4-0.9-1.6-3.7,0.7-4.2c2.6-1.3,2.6,3.5,4.6,3.7c1.7-0.9-1.4-0.8-1.1-2.7c2.3-0.3-0.1-2.7,2.8-2.7
	c0.7,1.4,0.3,2.4-1.2,2.9c0.8,1.6,1.4,3.2,1,4.3c-3.2,0.4-3.8,1.4-6.4,1.8c-1.2,0.6-0.4,1.5-0.5,2.6c0,0.4-0.9,2.3-0.5,2.6
	c0.7-0.2,1.4-0.5,2-0.8c0,1.6-1.3,0.8-2.2,2.5c0.4,1.7,1.8,1,2,3.1c-1.7,1.3-2.1-0.2-3.7,0.7c0.8,1.2,1.4,2.8,3.1,1.9
	c0.8,1.3,1.8,2.5,2.9,3.5c1.5-0.5-0.7-2.5-0.7-3.7c2.8-0.5,1,2.4,2.7,2.8c0.7,1,2.4-0.3,2.4,2.2c0.7-0.4,0.1-1.5-0.1-2.3
	c-0.1-1.2,0.7-0.3,1,0.4c0.7,2.6-0.4,3.9,1.5,5.7c-1.3,0.9-2,0.3-2.9,0.4c0.3,2.4,1.9,1.7,3.1,1.9c1.1,1.2-2.9,2.7-0.5,2.6
	c0.2,0.8-1,1.1-1.8,1.5c-1.3,0.7-0.6,2.4-1,3.5c3.7-0.3,1.8-3,3.9-3.9c0.2,1.3,1,1.1,1.9,0.8c-0.2,2.5,1.3,2.6,1,4.3
	c-1.7,1.2-1.9-0.8-3.3-0.3c-1.5,0.9-0.6,3.7-2.8,2.7c-1-1.4,0.9-1.5,0.5-2.6c-3.3,0.6-1.8,3.3-1.8,5.4c-0.8,0.1-1-1.2-1.9-0.8
	c-0.7,0.4-0.1,1.5,0.1,2.3c-0.8,0.1-1-1.2-1.9-0.8c-1.5,0.6,0.7,1.8,1.1,2.7c0.3,1.2,0.6,2.4,0.7,3.7c-1.8,1.5-1.8-1-2.4-2.2
	c-0.5,0.1-0.9,0.4-1.2,0.8c-0.3,0.4-0.4,0.9-0.3,1.4c-1.2-0.5-1.2,0.2-2,0.8c0.6,1.6,2,1.5,2.3,3.8c1.7-0.4-1.6-3,1.2-2.9
	c0.3,0.7,1,0.2,1.6,0.1c1.5,1.5-1.3,1.5-1.5,2.2c-0.3,1,2,2.6-1.2,2.8c0.3,2.8,2.3,1.6,3.4,2.6c1.5,2-1.2,2.1-1,3.5
	c-1.8,0.3-3.7,0.8-4.5-1.4c-0.4,0.8-0.6,1.7-0.5,2.6c-1.8,1-1.7-2.3-3.1-1.9c-1.7,1.7,1.7,2,1.6,4.1c-0.1,1.5-1.6,0.2-2,0.8
	c-0.2,0.2,0.7,1.1,0.5,1.3c-0.1,0.2-0.7,1.8-0.8,1.9c-0.8,0.8-3,0.2-3.1,2c-2.5,0.1-0.1-2.2,1.5-2.2c-0.2-1.5,1.5-2.1-0.4-3
	c-1.2,0,0.5,2,0.1,2.3c-0.3,0.3-1.8-1.5-2.2-1.5c-0.3,0-0.8,1.6-1.8,1.5c-0.1,0.9,1.5-0.1,1.6,0.1c0.9,1.6-3,1.9-3.3,3.7
	c-1.5,0.5-2.1-1.1-2.7-2.8c-1.2,1,0.8,3.3-0.7,4.2c-1.7,0.7-1-0.2-1.2-1.1c-0.4,0-0.7,0-1.1-0.2c-0.3-0.1-0.6-0.4-0.8-0.7
	c-0.8,0.6,0.1,2,0.4,3c-0.7,0.2-0.9-0.6-1.2-1.1c-1.7,0.6-3.3,1.2-3.8,2.3c-1.4,0.7-2.4,0.3-2.9-1.2c-0.8,0.5-1.4,1.1-1.9,1.9
	c-0.5,0.7-0.9,1.6-1,2.5c-1.6,0.6-2.5-0.4-4.3,1c-0.9-0.6-1.5-1.4-1.8-2.4c-0.8,0.6,0.1,1.9,0.4,3c-3.3,1.7-6.5,3.7-9.3,6.1
	c-0.6-1.3-2.2-0.1-2.4-2.2c-1.6-0.2-2.4,1.7-3.8,2.3c-1.8,0.8-1.5-0.6-2.7,1.1c-0.6,0.9-1.3,1-2.4,1.8c-0.5,0.3-0.4,1-1.1,1.2
	c-1.5,0.6-1.9,0.2-2.9,0.4c-0.8,0.2-1.9,1.1-2.7,1.1c-0.2,0-0.3-1.3-0.5-1.4c-0.7-0.2-2,1.4-2.3,0.1c-1,0.4,0.2,0.9,0.3,0.7
	c-0.1,0.4-0.4,0.8-0.7,1c0.1,0.9,0.3,1.7-1.1,2c1.8,3,4.9,2.2,6.1,7c0.7,1.5,2.4,0,2.9,2.2c-1.5-0.3-2.7-1.7-4.7-0.4
	c-0.5,0.4-0.4,1.1-1.1,1.4c2.4,1.7,3.2,3,3.9,6.3c-1.8,1.2-1.2,3.3-3.3,4.3c1,0.6,1.8,1.5,2.1,2.6c-3.7,0.7-0.5,3.9-0.8,5.8
	c1.9,1,1.5-1.4,4-1c0.5,2.5,2.7,0.4,3.2,3c1.4-1,2.4-1,2.9,0.4c1-0.6,2-1.1,2.5-0.3c0.5-0.8,0-2,1.5-2.5c0.5,2.5,2.6,1,4.3,1.5
	c0.9,0.3,1.5,1.8,3.6,0.1c2.6,2.7-1.6,3.1-0.1,5.5c0.7,0.9,2.1-0.3,3.3-0.7c1.3-0.8-0.7-2.7,0.1-3.6c2.1-2.4,1.6,2.3,3.3,1.1
	c2-1.5-1.5-1.2-1.4-3c3.3-1.3,6-1,8.4,0.5c2-2.4-0.7-2.7-1-5.9c1.6,0.1,3.2,0.1,3.9,2.6c3.3-0.3-1.4-3.4,1.9-3.6
	c1.4,1.1,2.6,2.3,3.6,3.7c1.1-1.4,2.3-2.6,3.7-3.6c0.9,0.9,2,1.3,2.9,2.2c0.4-0.5,0.8-1.6,1.8-1.8c0.2,0,0.5,1.4,0.7,1.5
	c0.8,0.2,2.2-1.7,2.5-0.3c1.6-1,1.8,1.7,3.3,1.1c0,1.1-3.6,0.6-0.8,4c-2.9,1.9-4.4-0.3-6.2-1.6c-1.4,0.3-1.1,1.2-0.8,2.2
	c-2.3,1.3-2.9-2.1-5.1-1.2c0.2,0.7,0.5,1.3,0.9,1.9c0.4,0.6,1,1,1.6,1.4c1,1.6-1.7,1.8-1.2,3.3c-0.7,0.4-0.9-0.9-0.7-1.5
	c0.8-2.3-0.9,1.2-2.1-2.6c-1.3,0.2,0.7,2.1,0.3,2.6c-1,1.2-2.1-3.3-3.9-2.6c-1.5,1.1,1.4,3.8,1.7,5.5c-2.7,1.9-2.2,4.9-5.9,6.5
	c-0.8-1.1,0.1-1.6-0.3-2.6c-1.8-0.8-4-0.2-5.8-0.8c-0.4,0.8-0.9,1.5-1.5,0.7c-0.7,0.6,0.2,1.7-0.8,2.2c-2.4-0.1-5.8,2.7-7.3-0.1
	c-0.8,0.6,0,1.8,0.7,1.5c1.1,2.1-3.6,1.7-4.4,2.1c-2.8,1.5-5,5.2-9.6,6.4c-1.7,0.3-1.1,1.8-1.5,2.5c-0.4,0.8-1.7,1.5-1.5,2.5
	c-2.4,0.5-4.1-1-6.2-1.6c-3.5,2.3-6.1,1.1-7,4.3c-1,0.1-2.2-0.5-4,1c-0.2,0.2-0.6,1.2-0.4,1.1c-1.3,0.6-2-0.1-3.3,0.7
	c-1.3,0.8-2.2,2.5-4,2.9c0.5,2.5,2.9-0.3,3.2,3c-0.9,0.3-1.2,0.8-1.1,1.4c-2.4,0.4-1.4-0.7-2.1-2.6c-1.2,0.5-2.6,1.7-3.3,0.7
	c-0.8,2.3-6,1.2-3.7,5.4c1.4-0.3,1.1-1.2,0.8-2.2c1.5-0.9,1.6,2.4,2.5,3.3c2.4-0.6,0,1.9,1.4,3c-1.6,0-3.4-1.4-2.9,1.4
	c-2.6-0.6-4.7-4.4-5-6.6c-0.6-1.6-2.3,0.7-4,1c-0.2,0-1.4-0.2-1.1-0.4c-1.3,1-2.2,2.4-2.6,3.9c0,0.5,2.2,1.2,2.1,2.6
	c-2.2,0.4-0.7,2.2-1.1,3.3c0.8,2.2,2.7,1.5,3.6,3.7c0.7-3.7,3.9-1.5,6.2-0.3c1.3-1.6-2.4-2.4-0.3-4.4c2.1-1.2,0.8,0.5,1.4,1.1
	c0.2,0.2,0.7-0.3,1.1,0.4c0.1,0.2,0.2,0.6,0.4,0.7c1.1,1.3,2,2.6,2.9,4.1c0.7,1.5,2.4,0,2.9,2.2c0.6-1,1.5-1.8,2.6-2.1
	c1.2,1.4-0.9,1.7-0.4,3c1.7,1,5.9,0.1,6.6-1.4c-0.7-2.6-3.1,0.3-2.1-2.6c1.4-1.2,1.7,0.9,2.9,0.4c2-1.5-1.5-1.2-1.4-3
	c2-2.7,4.3,0.3,6.6-3.2c-0.4,1.9,1.3,1.5,1,4c-0.2,1.4,1.6,4.4,1.7,7.3c0.9,1.6,2.6,0.7,4.4-0.3c1.2,3,3.9,1.4,5,4.8
	c0.9,0.4,1.9,0.5,2.9,0.4c0.4,2.2-2.6,3.2-1.9,5.4c1.2,3,4.3,0.4,5.8,2.6l2.9-1.4c1.2,1,2.8,1.5,4.3,1.5c0.2,1.2-1.3,0.7-1.8,0
	c-2.7,1.9-4.5,1.3-7,2.4c-0.6,1.2-0.5,2.7-1.9,3.6c0.6,0.4,1.2,0.8,1.6,1.4c0.4,0.6,0.7,1.2,0.9,1.9c1.8-0.4,0.4-1.9,1.5-2.5
	c2-1.6,2.4,1.3,4.4-0.3c1.3-0.2-0.7-2.1-0.3-2.6c0.6-0.8,3.5,3.5,3.6,0c1.4-1.2,1.7,1.8,3.3,1.2c1-0.4,2,0.4,2.5,1.5
	c0.5-0.3,1-0.4,1.5-0.3c0.5,0.1,1,0.3,1.4,0.8c1.6-2.4,1.6-0.5,4-1c1.7-0.4,2.9-2,4.8-1.4c0.9,1.4-0.5,1.7-0.4,2.9
	C831.7,371.3,832.7,371.8,832.8,372.1L832.8,372.1z M826.7,297.3c1.4,0.5,3.2-0.4,2.6-2.1C828.2,295.8,826.4,296.2,826.7,297.3
	L826.7,297.3z M825.4,290.7c1.6,0.6,3.7-0.8,2.2-2.9C826.2,288.6,825.4,289.5,825.4,290.7L825.4,290.7z M821,291
	c0.8,1.9,1.6,3.6,3.2,3C823.2,292.7,823.1,289.1,821,291L821,291z M790.1,309.5c-0.3,2.4,3.5,1,2.6-0.3
	C791.7,309.6,791.2,308.7,790.1,309.5L790.1,309.5z M789.6,270.8c0.4,0.7,0.7,1.5,1.1,2.2C793.3,273.1,791.2,268.7,789.6,270.8
	L789.6,270.8z M855.6,201.6c-0.9,0.4-1.1-1-1.9-0.8C853.5,202.6,856.1,203.7,855.6,201.6L855.6,201.6z M855.7,192.1
	c-0.6,0.8-2,0.9-1.5,2.2c4-2,5.4,1.8,6.4-1.8c0.2-0.8,0.1-1.6-0.1-2.3c-1.3,0.2-1.3,1.7-2,0.8c1.3,0-0.2-3.6-1.1-2.7
	c0.1,0.6,0.5,1.3-0.1,1.6C855.8,190.3,856.2,191.4,855.7,192.1L855.7,192.1z M853.7,185.1c-0.4-2.1,1.5,0.6,2.3-0.1
	c-0.2-0.8-0.9-1.9-0.1-2.3c0.1,0.4,0.9,0.5,0.7-0.3c-1.1,0.4-1.1-1.7-2.2-1.5c0,0.9-0.1,1.8-0.5,2.6
	C852.6,183.7,852.4,185.1,853.7,185.1L853.7,185.1z M852,206.3c0.8,3.6,0.8-1,1.1-1.2c0.6-0.6,2.7,0.6,1.8-1.5l-2.7,1.1
	C852.4,205.3,851.8,205.7,852,206.3L852,206.3z M848.8,204.4c1.6,1.3-0.9,3.6,1.4,3.4C849.9,206.8,851.7,203,848.8,204.4
	L848.8,204.4z M844,223.7c0.8,0.8,0.6,3.8,2,3.1C844.6,225.4,846.9,222.4,844,223.7L844,223.7z M842.6,188.7
	c0.7-0.6,1.2-1.3,1.5-2.2C843.1,186.9,840.8,189.2,842.6,188.7L842.6,188.7z M840.1,231.5c0.2,0.5,0.4,0.9,0.5,1.4l1.4-0.6
	c-0.2-0.4-0.4-0.9-0.5-1.4L840.1,231.5z M837.5,191.6c0.4,0.8,0.6,2,1.5,1.8c-0.1-0.4-0.2-0.8,0.4-1
	C838.9,191.6,838.5,190.9,837.5,191.6L837.5,191.6z M813.8,232.7l0.5,1.4l1.4-0.5l-0.6-1.4L813.8,232.7z M784.6,65.5
	C785.2,61.5,781.7,64.7,784.6,65.5L784.6,65.5z M266.2,540.2c-0.2-0.5-0.3-0.9,0.4-1.1c-0.5-0.9-1.1-1.6-2.2-0.8
	C264.9,539.1,265.2,540.5,266.2,540.2z M270.5,543.5l-1.4-3l-2.9,1.4c2,1.6-0.2,4.7,2.1,4.4C267.8,545,268.7,544.1,270.5,543.5z
	 M205.1,631.1l1.5-0.7l-0.7-1.5l-1.5,0.7L205.1,631.1z M208.6,662.9c-1.1,0.4-1.5-1.4-2.1-2.6c-1.9,0.8-3.6,1.6-2.9,3.2
	c1.1-0.3,1.6,1.2,2.5,1.5C207,664.4,208.8,664,208.6,662.9L208.6,662.9z M211.6,654.2c-2,0.7-2.2,5.5-4,1c-2.5,0.8-3,2.2-1.5,4.4
	c1.6-1,2.6-3.5,3.6,0.1C211.7,658.3,210.9,656,211.6,654.2z M227.5,591.4c-1-0.8-1-3.2-2.9-2.2c-1.1,2.3,1.4,2.7,2.9,4
	c1.1,1.1,2,4.3,3.9,2.6C232.3,593.6,229.3,592.9,227.5,591.4z M235.3,679c-1.1,0.4-1.5-1.4-2.1-2.6c-2-2,0.1,2.4,0.7,3.3
	c-0.5,0.4-1.1,3.5,0.3,2.6C233.5,680.8,236.3,680.6,235.3,679L235.3,679z M234.2,586.4c1.1,1.9-0.3,3.6,0.3,4.4c0.6,0,1.2,0,1.8,0
	C236.7,590.3,238.1,585.3,234.2,586.4L234.2,586.4z M239.6,684.2c0.6,1.4-2.2,1.7-1.1,3.3C241,687.5,242.2,684,239.6,684.2
	L239.6,684.2z M245.8,560l0.7,1.5c2.3,0.3,1-3.5-0.3-2.6C246.4,559.3,246.5,559.8,245.8,560L245.8,560z M246,688.4l-1.1-2.2
	l-1.5,0.7c0.4,1-0.5,1.5,0.3,2.6L246,688.4z M250.7,694.3c-0.8-4.3-5.5-2.1-4.4,0.2c0-0.3,1.9,1.3,1.5,1.2
	C248.7,695.7,249.8,694.2,250.7,694.3L250.7,694.3z M254.8,571.1c-0.3-1.7-1.3-0.6-2.2-0.8c-0.3-0.1-0.4-1.4-0.7-1.5
	c-0.6-0.2-1.5,0.9-1.8,0c-0.1-2.2-3.6-3.4-3.3-1.1c2.9-0.8,3.2,3.7,2.5,5.1c1.5-0.5,1.2-1.6,2.6-2.1
	C252.4,572,253.4,572,254.8,571.1L254.8,571.1z M255,577.3c0.6,1,1,2.8,2.2,2.6C257.4,579,257.3,575.3,255,577.3L255,577.3z
	 M260.6,571.9c-1,0.4-1.5-0.5-2.6,0.3C257.8,574.5,261.6,573.1,260.6,571.9L260.6,571.9z M276,538.2c-0.7-2-2.2-2-4-0.8
	C272.5,540.2,274.2,539.3,276,538.2L276,538.2z M281.9,671.1c0.6,0.4-1.2,2-0.8,2.2C282,673.5,285.1,671,281.9,671.1L281.9,671.1z
	 M287.5,543.5c-0.5-1-1-2-1.4-3c-1,0.6-2.8,1-2.6,2.1C285.2,542.1,286,543.9,287.5,543.5L287.5,543.5z M290.5,515.9
	c-0.5,0.2-0.9,0.5-1.1,0.9c-0.3,0.4-0.4,0.9-0.4,1.4l1.1-0.5c0,0.1,0.1,0.2,0.1,0.3c0.4,0,0.4,0.3,0.3,0.7l0.1,0.3l-0.2,0.1
	c-0.3,1-0.9,2.4-0.4,3.3c0.1,0.2,1.6,0,1.4,1.1C295.3,521.2,292,517.8,290.5,515.9L290.5,515.9z M299.3,513.4
	c-0.5-1.2-0.2-2.1-0.6-2.5c-0.1,0.8-0.5,1.6-1.1,2.2c0.2,0.2,0.5,0.3,0.9,0.4C298.7,513.6,299,513.5,299.3,513.4L299.3,513.4z
	 M300.4,512L300.4,512l0.1-0.3C300.5,511.7,300.5,511.8,300.4,512L300.4,512z M304.3,506.9c-0.2,0.6-0.5,1.2-1,1.7s-1.1,0.8-1.7,1
	c0,0,0-0.1,0-0.1c-0.2,0.3-0.3,0.6-0.5,0.9c0.3,0.1,0.5,0.3,0.7,0.5c0.1-0.4,0.4-0.8,0.7-1c0.4-0.2,0.8-0.4,1.2-0.3
	c0.2-0.1,0.4-0.3,0.6-0.5c0.2-0.2,0.3-0.4,0.3-0.7c0.1-0.3,0.1-0.5,0-0.8C304.6,507.3,304.5,507,304.3,506.9L304.3,506.9z
	 M308.1,507.4c0.2,0.5,0.3,0.9-0.4,1.1l0.7,1.5C310.8,510.1,309.4,506.3,308.1,507.4L308.1,507.4z M711.2,463.3l0.7,1.5l2.2-1.1
	c-0.2-0.5-0.5-1-0.7-1.5L711.2,463.3z M707.3,457.1c0.8,1.9-0.3,3,2.1,2.6C709.8,458.8,709.7,455.1,707.3,457.1L707.3,457.1z
	 M702.4,471.2l2.8,5.9c3.4-2.7,6-5.6,5.2-9.8c-1.5-0.8-2.8,1.1-4,1c-0.6,0-1-2.3-2.2-0.8c0.1,0.6-0.2,1.2-1.1,1.4
	c0.1,0.4,0,0.8-0.1,1.1C702.9,470.5,702.7,470.9,702.4,471.2L702.4,471.2z M696.4,465.9c-2.9,1-1.2,3.3,0.7,3.3
	C696.4,468.2,696.2,467.1,696.4,465.9z M693.8,466.2c0.9-0.5,1.6-1.4,1.9-2.4c0.3-1,0.3-2.1,0-3.1c-0.9,0.5-1.6,1.4-1.9,2.4
	C693.4,464.2,693.4,465.3,693.8,466.2L693.8,466.2z M678,474.8c1.4,0.5,3.2-0.3,2.6-2.1C679.6,473.3,677.8,473.7,678,474.8z
	 M672.2,474c1.6,0,2.9,1.2,5.1-0.7c-0.5-1.5-1.6-1.2-2.1-2.6C673.3,471.5,671.5,472.3,672.2,474L672.2,474z M669.7,493.3
	c0.8,1.9,1.6,3.6,3.2,3C672.2,494.3,671.4,492.6,669.7,493.3L669.7,493.3z M664.7,490.3c2.3-1.8,3.5-0.7,5.1-0.7
	c-0.8-1.7-1.6-3.4-2.5-5.1l-2.2,1.1C667.5,487.9,663.8,488.3,664.7,490.3L664.7,490.3z M776.6,431.8l1.5-0.7c-0.4-1,0.5-1.5-0.3-2.6
	l-1.5,0.7C776.7,430.2,775.8,430.7,776.6,431.8z M764.4,349.9c0.3,2.7,2,1.2,2.9,2.2c-2.6,1.5,3,0.8,1.5-0.7
	C767,351.7,766.7,347.8,764.4,349.9L764.4,349.9z M764.9,360.5c0.2,0.5,0.5,0.9,1,1.2c0.5,0.3,1,0.4,1.5,0.3c-0.2-0.5-0.5-0.9-1-1.2
	C766,360.5,765.5,360.4,764.9,360.5L764.9,360.5z M761.4,353.2c0.5,0.9,1.1,1.6,2.2,0.8c0.4,0.5,0.7,1.4,1.4,1.1
	C765.8,353,763.8,351.3,761.4,353.2L761.4,353.2z M720.5,362l-2.2,1.1c1.8,1.4,0.1,4.4,1.8,3.7C719.2,364.8,722.9,364.5,720.5,362
	L720.5,362z M723.7,415.7C725.2,420.4,727.3,414.6,723.7,415.7L723.7,415.7z M722.2,420c0.2,0.7,0.5,1.3,0.9,1.9s1,1,1.6,1.4
	c2-2.5,2-0.4,4.8-1.4c-0.9-2-2-0.9-1.4-3C725.2,419.4,725,421,722.2,420L722.2,420z M458.7,395.5c-0.1-0.5-0.5-0.8-1.5-0.5
	c0.1,0.4,0.2,0.8,0.4,1.1L458.7,395.5z M426.8,399.5c-0.7,0.3-1.4,0.6-2.2,1c-0.4,0.3-0.7,0.7-0.9,1.1c-0.2,0.4-0.3,0.9-0.3,1.4
	c1.5-0.4-0.3,2.2,2.2,1.5C425.2,402.5,428.6,402.1,426.8,399.5L426.8,399.5z M419.1,403.8c-0.7,0.2-1.3,0.6-1.8,1c0,0.2,0,0.4,0,0.7
	c-0.1,0.1-0.3,0.1-0.4,0.2c-0.2,0.4-0.5,0.4-0.9,0.3c-0.7,0.3-1.3,0.6-1.2,1.2c2-0.3,2.8,2.1,5.2,1.1
	C418.9,406.5,420.1,405.6,419.1,403.8L419.1,403.8z M407.8,411c-0.3,0.3-0.6,0.6-1,0.9c-1.1,0.8-2.5,1.1-3.7,1.8
	c-0.6,0.4-1.3,0.8-2.1,1.3c2,1.1,5.6-1.8,7.7-1.3C408.4,412.7,408.1,411.8,407.8,411L407.8,411z M409.7,430.1c-0.2,0-0.5,0-0.7,0
	c-0.1,0.5-0.2,1-0.1,1.6l0.8-0.4c-0.1-0.2-0.1-0.4-0.1-0.6C409.6,430.5,409.7,430.3,409.7,430.1L409.7,430.1z M382.2,454.2
	c-0.2,0-0.4,0-0.6,0c-0.2,0.1-0.4,0.2-0.5,0.3c0,0.1,0,0.1,0,0.2C381.9,454.6,382.2,454.4,382.2,454.2L382.2,454.2z M383.5,452
	c-0.5-1.3-1.5-1.2-2-2.4c-0.7,1.1-0.9,2.4-0.7,3.7C381.6,452.6,382.6,452.1,383.5,452L383.5,452z M383,444.4
	c-0.3,0.1-0.6,0.2-0.8,0.4c-0.2,0.2-0.4,0.5-0.4,0.8C382.1,445.2,382.6,444.8,383,444.4L383,444.4z M404.4,429.5
	c-1,0-1.3-1.4-2.8-0.4c-0.4-0.8-0.8-1.5-1.9-0.8c0.3,2,1.9,0.8,2.4,2.2c-0.2,0.1-0.3,0.3-0.4,0.5c-0.1,0.2-0.1,0.5,0,0.7l0.7-0.6
	c0.4-0.3,1.1-0.4,1.5-0.7C404.2,430.1,404.3,429.8,404.4,429.5z M392.7,444.6l0.1,0.2h0.1L392.7,444.6z M421.4,403.8l0.6,1.4
	l1.3-0.5c-0.2-0.5-0.4-0.9-0.5-1.4L421.4,403.8z M559.4,331.1c-0.4-0.5-1.1-0.3-1.9,0c0,0.4,0.2,0.9,0.5,1.2
	c0.3,0.3,0.7,0.6,1.1,0.6C559.4,332.3,559.5,331.7,559.4,331.1L559.4,331.1z M558.1,334.5l0.2-0.1c0,0,0.1-0.1,0.1-0.1
	C558.2,333.9,558,333.9,558.1,334.5L558.1,334.5z M483.7,380.2l0.5-0.3c0-0.6,0-1.3-0.1-2.1c-1.6,0.7-2.5-1-2.8-1.2
	c-0.7-0.4-2.3,0.8-2.6-0.5c-0.4-0.5-0.6-1.3-1.2-1.1c0.8,1.1-0.3,2.9,0.3,4.6c0,0,0.6-0.3,0.7-0.3c0.6,0.2,1,1.8,1.3,3.1
	c0.4-0.3,0.7-0.6,1-0.8c0.3-0.3,0.4-0.7,0.4-1.1C482.3,379.8,482.8,380.8,483.7,380.2z M488.4,376.8l0.1-0.1
	c0.2-0.2,0.4-0.4,0.7-0.5c0.6-0.5,1.2-0.9,1.9-1.4c0.1-0.2,0.2-0.5,0.1-0.7c0-0.2-0.1-0.5-0.2-0.7c-1.7,0.8-1.6,2.1-3.4,1.4
	C487.9,375.5,488.2,376.1,488.4,376.8L488.4,376.8z M497.9,370.9c0-1-1-2.1-2-1c0.2,0.5,0.4,1.1,0.6,1.6
	C497,371.3,497.4,371.1,497.9,370.9L497.9,370.9z M505.8,366c-0.3-0.4-0.6-0.8-0.9-1.3c-1.1,0.6-3.7,0.7-2.2,2.5
	c0,0.1,0.1,0.1,0.1,0.2c0.4-0.3,0.7-0.5,1.1-0.6v-0.1C504.6,366.4,505.3,366.2,505.8,366L505.8,366z M505,363.1
	c-0.4-2.6-2.8-2.8-3.5-1C502,364,503.6,363.3,505,363.1L505,363.1z M457.7,388.4c-0.2-1.8,1.5-2.7,1.4-4.5c-1.3,0.2-2.4,1-3.1,2
	c-0.7,0.8-0.1,1.7-1.5,2.2c-0.3-0.7-0.9-0.6-1.2-1.1c0.5-0.1,0.9-0.4,1.2-0.8s0.4-0.9,0.3-1.4c-1.3,0.9-1.4-0.1-1.5-1.2l-1.6,1.1
	l-0.3,0.1c0.1,1,0.4,1.9,0.9,2.8c0.5,0.8,1.2,1.5,2.1,2.1C453.8,388.2,456.4,390,457.7,388.4L457.7,388.4z M447.3,395.8
	c-0.3-0.1-0.7-0.2-1-0.1c-0.3,0.1-0.7,0.3-0.9,0.5c-0.2,0.3-0.4,0.6-0.4,1c0,0.4,0,0.7,0.2,1C446.7,397.8,447.6,397,447.3,395.8z
	 M442.3,404.9c0.2,0.3,1.8,0.1,2.3-0.1c-0.7-1.1,0.7-4.5-2-3.1C444,403.7,440.6,403,442.3,404.9L442.3,404.9z M435.8,410.4
	c-0.2-0.7-0.6-1.1-1.5,0v0C434.8,410.6,435.3,410.6,435.8,410.4L435.8,410.4z M473.4,386.6c-0.1-1.6-1.7-4.1-2.9-3.4
	c1.3,1.3,0.3,3.8,1.1,4.5C472.1,387.4,472.8,387.1,473.4,386.6L473.4,386.6z M476.5,384.6l0.1-0.1c-0.4-1.3,0.4-5-2.3-3.7
	c0.3,0.9,0.4,1.7-0.8,1.9c0.5,1,0.8,2.6,1.8,2.5C475.1,384.5,475.8,384.5,476.5,384.6L476.5,384.6z M318.6,468.7
	C318.6,468.7,318.6,468.7,318.6,468.7c-0.1,0.2,0.4,0.7,0.3,0.8c-0.2,0.3-1.4,0.4-1.5,0.7c-0.1,0.3-0.3,0.5-0.5,0.7
	c0.5,0.6,0.7,1.8,1.5,1.8c2-0.3,0.8-1.9,2.2-2.5C320.4,468.8,319.4,469.1,318.6,468.7L318.6,468.7z M335.3,458.1
	c-0.3,0.3-0.5,0.7-0.9,1c0.7,0.9,1.5,1.6,3,0.5C337.3,457.9,335.9,459.1,335.3,458.1L335.3,458.1z M371.1,433.5
	c-0.8,0.5-1.5,1.1-2.2,1.6c0.2,0.2,0.4,0.4,0.7,0.6c0.5-0.1,0.9-0.4,1.2-0.8C371,434.4,371.2,434,371.1,433.5L371.1,433.5z
	 M378.7,440.6c0.4-0.3,0.8-1.5,1.8-1.5c0.1,0,2.7,2.3,1.3-0.5c2.2,0.5,4.1,1.4,6-0.8c0.5,1.5,1.4,2,2.9,1.2c0.8-1.3,0-2.4,0-3.9
	c0-0.5,1.3-0.3,1.1-1.2c-0.1-0.6-1.1-0.4-1.2-1.1c-1.7,0.4,1.6,3-1.2,2.9c-1.3-1.9-0.3-2.7-1-4.3c1,0.2,2.1,0.1,2.9-0.4
	c-1.6-0.5-1.4-0.2-2-3.1c0.6-0.8,2,0.5,2.3-0.1c0.7-1.4-1-0.7-1.4-3.4c0-0.2,0.6-0.3,0.4-1c-0.1-0.5-0.1-1.1,0-1.6
	c-0.6,0.6-1.2,1.1-1.8,1.6c-0.4,0.3-3.3,2-3.7,1.8c-1.3-0.6-2.2,1.6-4,2.8l-0.2,0.1c0.9,1.7,1.6,3.6,2,5.5c-1.6,1.2-1.9-0.9-2.9-1.2
	c-2.7,2.4-3.9,1.3-6.6,1.1c-0.1-0.4-0.2-0.7-0.4-1.1c-0.6,0.4-1.3,0.8-1.9,1.2c2.1-0.1-0.3,2.2,1.7,2.4c0.4,0.4,0.8,0.7,1.3,0.9
	c0.5,0.2,1,0.3,1.6,0.3C376.3,439.4,377.8,439.4,378.7,440.6L378.7,440.6z M380.6,445.4c-0.4-1.6-1.2-2.5-2.4-2.2
	C378.8,444.4,378.9,446.9,380.6,445.4L380.6,445.4z M321.9,507.8c-0.7,0.5-2.9-2.5-2.6,0.3C320.3,507.3,322.6,510.2,321.9,507.8
	L321.9,507.8z M325,497.3c0.3,1.1-0.6,1.8-0.4,3C326.5,500.2,327,496.8,325,497.3L325,497.3z M325.8,515.9
	C327.1,520.6,329.1,514.7,325.8,515.9L325.8,515.9z M345.2,484.9c-0.3-0.7-0.5-1.5-0.4-2.3c-0.3,0.2-0.7,0.3-1.1,0.5
	c-0.1-0.6,0.4-1,0.1-1.6l0.6-0.2c-0.2-0.4-0.4-0.7-0.7-1.1c-2.2,2-2.9-0.1-4.4-0.4c0.1,0.6,0.3,1.2,0.5,1.7h-0.2
	c0.1,0.5,0.1,1,0,1.5c1,0.8,2.9-1.3,3.6,0.1C341.7,484,344.5,485.6,345.2,484.9L345.2,484.9z M379.3,454.5c0-0.2,0-0.5-0.1-0.7
	l-1.5,0.6c0.1,0.1,0.2,0.2,0.4,0.3c0.1,0.1,0.3,0.1,0.4,0.1c0.2,0,0.3,0,0.5-0.1C379.1,454.7,379.2,454.6,379.3,454.5L379.3,454.5z
	 M383.9,456.3c-0.1-0.3-0.3-0.7-0.5-1c-1.2,0.4-1.9,1-2,1.8C382.3,457.1,383.2,456.9,383.9,456.3L383.9,456.3z M386.2,447.9
	c-0.1-0.3-0.3-0.6-0.6-0.8c-0.3-0.2-0.6-0.4-0.9-0.5c-0.1,0.5-0.5,0.9-1.6,0.9c-0.1-0.1-0.2-0.2-0.3-0.4c-0.2,0.1-0.4,0.3-0.5,0.4
	c0.1,0.3,0.3,0.6,0.4,0.9c-0.2,0.2-0.5,0.3-0.7,0.5C384.5,447.9,384.2,450.7,386.2,447.9L386.2,447.9z M421.5,423.7
	c-0.4-0.6-0.7-1.2-0.9-1.9c-0.2-0.7-0.2-1.4-0.1-2.1c1.4-0.4,2.7-1,3.9-1.8c-0.8-0.3-1.3-1.5-1.7-2.8l2.7-1.1
	c0.5,0.8,0.8,1.8,0.8,2.8l1.6-1l-0.2-0.3c0.1-1.1,0.4-0.7,0.7,0l0.8-0.5c-0.2-0.2-0.4-0.5-0.5-0.7c1.6-1.4-1.7-1.4-0.4-3
	c2.1-0.6,2.9,1.7,4.9,1.1l0.1-0.2c-1-2.5-3.4-1.4-4.1-4.4c-0.5,1.1-1.1,1.2-1.6-0.1c-1.2,0.4-1.1,1.4-2.4,1.8
	c0.9,0.6,1.5,1.4,1.8,2.4c-0.7,0.2-0.9-0.6-1.2-1.1c-2.3,0.3,0.1,2.7-2.8,2.7c-0.9-1.3-0.3-2-0.4-3c-0.5,0.1-0.9,0.4-1.2,0.8
	c-0.3,0.4-0.4,0.9-0.3,1.4c-1,0.5-0.9-1.3-1.5-1.8s-2.4,0.1-3.3-0.3c-0.7-0.3-0.8-1.6-1.5-1.8c-2,1.1-2.5-0.9-4-0.7l-0.2,0.1
	c-0.4,2.8,3.5,4.4,6.7,2.8c1.8,2.4-0.1,6.1,3.1,5.8c1.1,1.8-3.9,1-2.8,2.7c-1.4,0.7-1.3-2.3-2-3.1c-2.1-0.8-4.7-0.3-7.2-0.3
	c-1.1,0.6-1.1,1.8-0.3,3.3c-3.1,1-1.1,4-1.5,6.1c0.5,1.5,1.7-2,3.7-0.7c0.7,0.4,0.8,0.6,0.8,1.1c0.5-0.3,0.9-0.4,1.5-0.5
	c0.5,0.8,1.6,0,2.5-0.3c1,2-0.5,2.1,1.4,3c0.3-0.1,0.5-0.2,0.7-0.3c-0.3-1-1.4-2.7,1.6-3.2l0.4,1c0.2-0.5,0.6-0.9,1-1.3
	C420.5,424.1,421,423.9,421.5,423.7L421.5,423.7z M613.8,482.1c-1.7,1.5-1.1-3.7-2.9-2.2C611.4,482.3,612.6,485.6,613.8,482.1
	L613.8,482.1z M631.7,476.2c-0.7-4.2-3.8-2.1-5.4-3.7c-0.5-0.8-0.9-2.1-1.8-1.9c-0.4-1.1-1.5-2.7-1.4-1.1c3.7,5.6-4.8,6.5-6.7,8.6
	c1.2,2.1-0.6,3.1,0.6,5.1c2.9-1.3,4,2.5,6.9,1.2c3.7-0.7,0.1-4,4.1-4.7c-0.1-1.3-2.7-3.4-1-4C629.3,474,629.4,478.3,631.7,476.2
	L631.7,476.2z M636.8,479.1c-0.9,1.9,1.1,2.5,1.8,3.7c0.1,0.2-0.6,1,0,1.8c0.1,0.1,2,0.5,2.2,0.8C641.3,483.4,638.9,479,636.8,479.1
	L636.8,479.1z M638.4,467.5c-3.5,0.6,0.2,3.7-1.2,5.1c-1.8,1.1-2-2.6-3.9-0.8c1,2.4,3.1,1.5,3.9,4.4c2-1,2.1,0.5,2.9-1.4
	c0.4,0.7,1.7,0.3,1.5-0.7C637.8,475.3,638.9,469.1,638.4,467.5L638.4,467.5z M650.8,468.8l-0.7-1.5l-1.5,0.7l0.7,1.5L650.8,468.8z
	 M657,468.5c0.6-2.4,0.5-2.7-1.8-3.7c1.6-1.1,2.8-2.3,2.6-3.9c-2,0.7,0.4-1.8-1.4-3c-1.3,0.9-2-0.3-2.9-0.4c-0.2,1.8-2.1,3-2.3,4.7
	c2.3,0.1,2-3.6,3.7-1.8c-0.8,2.6-1.3,5.3-1.6,8C654.8,467.9,655.3,470.1,657,468.5L657,468.5z M662.4,472.3
	c-0.4-1.5-1.3-4.9-3.6-3.7c1,1.8,1.8,3.5,0.3,4.4c-1.7,0.3-2.5-1.5-3.3,0.7c0.6,1,1,2.8,2.1,2.6c0.3-3.6,2.4,2.2,4,0.8
	c0.6-1-0.8-2-0.7-3.3C661.3,473.4,662.5,472.7,662.4,472.3L662.4,472.3z M666.8,442.1c-0.8-1.3,0-2-0.7-3.3
	c-0.8,0.4-1.7,0.5-2.5,0.3C664.4,441,665.5,442,666.8,442.1L666.8,442.1z M669,442.8c1.1,1.1-0.7,4.1,1.8,3.7
	C671,445.9,670.9,442.3,669,442.8L669,442.8z M676.9,449.9c-1-1.2-1.1-4.9-3.2-3c-0.1,1-1.2,4.8,1.4,4.8
	C674.8,450.8,675.9,450.4,676.9,449.9L676.9,449.9z M682.3,451.8c-0.8-1.3-1.7-2.2-2.9-2.2c2.4,2.1-2.3,1.6-1.2,3.3
	c0.7-0.1,1.2,0.2,1.4,1.1C680.8,453.6,681.8,452.9,682.3,451.8L682.3,451.8z M685.1,435c0.8,1.9,1.8,2.9,3.2,3
	C689.2,436.1,686.6,435.9,685.1,435L685.1,435z M693.1,436.6c-2.1-0.7-1.9,0.8-3.7,1.8c0.8,1.9,1.6,3.6,3.2,3
	C691.3,439.3,693.8,438.5,693.1,436.6L693.1,436.6z M700.1,428.7c-1.6-1.8,0.1-2.4-1-4c-1,0.4-1.5-0.5-2.6,0.3
	C697.6,426.9,698.7,428.4,700.1,428.7L700.1,428.7z M704.5,426.6c-1.4,0.3-0.3-1-1.1-2.2l-1.5,0.7c0.4,0.7-0.2,1.2,0,1.8
	C702.9,426.1,705.2,429,704.5,426.6L704.5,426.6z M744.8,457.9l1.5-0.7l-0.7-1.5l-1.5,0.7L744.8,457.9z M748.8,456.9l-2.9,1.4
	c1.2,2-1.6,4.1,1.8,3.7C746.9,459.9,750.8,459.4,748.8,456.9L748.8,456.9z M745.5,440.4c0.2,0.5,0.5,1,0.7,1.5l1.5-0.7l-0.7-1.5
	L745.5,440.4z M738.9,440c2.9,3.2-2.8,4.3-2.6,3.9c-0.1,0.2,0.7,1.2,0.7,1.5c0,1.4-2.6,2.3-2.9,3.2c-0.3,0.9,0.5,1.6,0.3,2.6
	c-0.1,0.8-0.8,1.1-0.8,2c0,0.1,0,0.1,0,0.2c0-0.1,0-0.1,0-0.2c0.1-0.4,1.5,3.2,1.8,3.9c2.5-0.6,7.5-1.7,8.4-3.2
	c-0.5-1.5-1.6-1.2-2.1-2.6c1.6-0.5,1-1.7,1.5-2.5c1.7,1.8,1.8,2,2.1,4.4c1.2,1.2,4.1-2.6,4.7,0.4c-0.4,0.2-0.5,1,0.4,0.7
	c1.5-2.6-3.3-4.7,2.3-6.5c-0.8-3.4-2.9-3.1-5-3c-1.2,2.7,3.9,3.8-0.1,5.5c-3.2-6.3-3.4-4.9-4.9-10.3
	C740.9,441.5,740.4,439.3,738.9,440L738.9,440z M738.2,417.7c-2,1.5-3.7,1.1-5.1,2.5c-0.1,0.1,0.7,1.3,0.7,1.5
	c0,1.7-3.8,1.7-2.9,3.2c1.8-0.5,1.5,2.2,0.7,3.3c-0.5,0.7-2.3,0.7-1.8,1.8c1.6,0.1,3.3,1.7,1.4,3c-0.6-1.8-2.5,0.2-3.3-1.1
	c-0.4-1.1-1.1-2-2.1-2.6c2.4,1.3,4.1-4.6,1.2-5.1c0.1,0.8-0.2,2.4-1.5,2.5c-0.4,0.1-1.1-2.3-2.2-0.8c-0.7,1.6-0.6,3.5-3.3,4.3
	c-0.6-1.1-1.1-2.6-2.5-1.5c1.3,2.1,3.5,1.5,4.3,5.2c-1,1.3-1.3,2.8-2.6,3.9c-0.8-2.5-3.1-0.6-3.6-3.7c-3,1.3-3.6-3-6.2-1.6
	c-2.1,1,2.7,1.2-0.8,2.2c1.6,2.5,3.2,3.7,3.2,6.6c2,0.9,2.6-0.5,3.6,0c0.7,1,1.8,0.7,2.5,1.5c-1.1,0.6-2.6,1.1-1.5,2.5
	c2.7-0.4,1.7-0.4,2.9-1.4c0.5-0.4,1.7-1.8,1.8-1.8c0.1,0,0.6,1.2,1.1,0.4c0.8-1.5-2.2-2.3,0.1-3.6c0.9,3.8,3.2,3.6,5,4.8
	c2-0.6,1-2.1,3.3-2.5c0.2,1-1.6,4.2,1,4c0.7-1.6,1.1-3.3,1.2-5.1c-1,0.5-1.9-1.6-1.1-2.2c0.7,1.5,2.4,0,2.9,2.2c2-2,1.8-1.3,4-1
	c-0.9-3.6,0.8-6.2-1.3-10.2c0.8-0.5,1.7,0.5,1.5-0.7c-1.7-1-4.4,0.9-5.8-0.8c1.3-0.8-0.7-2.7,1.1-3.3c2.5-0.2,5.1-0.5,7.3,0.1
	C740.1,421.9,738.2,420.9,738.2,417.7L738.2,417.7z M740.3,350.6l-1.4-3l-1.5,0.7l1.4,3L740.3,350.6z M741.9,363.4
	c-0.5,1.4,0.3,3.2,2.1,2.6C744.6,364.6,743.5,363.6,741.9,363.4L741.9,363.4z M748,347.8c0,0.2-1.4-0.2-0.4-0.7s1.3,1,2.2,0.8
	c1-3.1-2.5-3.2-5.1-1.2c0.1,1.3-0.2,2.4-0.1,3.6C746.8,348.8,747.9,350,748,347.8L748,347.8z M750.3,362.1l-0.7-1.5l-1.5,0.7
	l0.7,1.5L750.3,362.1z M753.7,403c-0.2-0.5-0.5-0.9-1-1.2c-0.5-0.3-1-0.4-1.5-0.3c0.2,0.5,0.5,1,1,1.2
	C752.6,403,753.2,403.1,753.7,403L753.7,403z M758.8,355.3c1-3-2.3-4.6-3.9-6.3c-0.9-0.9-1-4.1-2.9-2.2c0.3,0.9,0.6,1.8-0.8,2.2
	C753.4,352.2,755.8,354.8,758.8,355.3L758.8,355.3z M758.4,358.2c0.5-0.2,0.9-0.3,1.1,0.4l1.5-0.7
	C761.3,355.6,757.4,356.9,758.4,358.2L758.4,358.2z M762.6,393.3c0.3,1-0.6,0.8-1.5,0.7c0.7,1.5,1.4,2.9,2.1,4.4
	c0.8-0.4,1.7-0.5,2.6-0.3C766.3,396.6,764.8,392.3,762.6,393.3L762.6,393.3z M769.4,368.2c-0.5-1.5-1.6-1.2-2.1-2.6
	c0.5-0.4,1.4-0.7,1.1-1.4c-2,0.6-1,2.1-3.3,2.5C766,369.2,767.4,369.7,769.4,368.2L769.4,368.2z M771.7,387.9
	c-0.6-1.8-1.5-2.7-2.9-2.2C768.3,387.4,769.7,389.4,771.7,387.9L771.7,387.9z M773.4,372.7c-0.4-0.8-0.5-1.7-0.3-2.6
	c-1.1,0.2-1.9-0.4-3.3,0.7C770.7,372.7,772.1,372.6,773.4,372.7L773.4,372.7z M778,354.1c1.9-0.1,2.3,4,4.3,3.3
	c-1.6-3.1-0.9-4.8,2.3-4.7c-0.9-2-2-0.9-1.4-3C780.8,351,778.1,352.1,778,354.1L778,354.1z M777.7,377.8c-1-1.1-1.8-2.9-3.2-3
	C775.6,376.1,775.7,379.8,777.7,377.8L777.7,377.8z M780.5,385.5c-0.7-0.2-1.5-0.2-2.2,0.2c-0.7,0.3-1.2,0.9-1.5,1.6
	c0.2,1.3-2,1.7-0.1,3.6C779.4,391.6,782.8,388.5,780.5,385.5L780.5,385.5z M789.9,365.6l-2.9,1.4c0.9,1.2-0.1,5.8,0.7,3.3
	c1-0.5,0.1-1.6,0.8-2.2c0.5-0.2,1-0.5,1.3-0.9C789.9,366.7,790.1,366.2,789.9,365.6L789.9,365.6z M799,362.1
	c-0.7-0.1-1.4-0.1-2.1,0.1c-0.7,0.2-1.3,0.5-1.9,0.9c-2.1-1.4-4.5-2.3-6.5-4.1c-2.9,1-4.6,2.5-5.2,4.3c-0.5-0.8-0.9-2.1-1.8-1.9
	c-0.1,1.7,0.3,3.4,1.4,4.8c1.3,1.8,1.6,2.4,3.6,1.9c-0.4-1.2-1.6-2.6-0.7-3.3c1.9,2.1,1.1-1.5,1.8-1.8c1.6,1.3,3.7,1.2,6.2-0.3
	c-0.8,2.3,2.3,2.3,3.9,2.6c-0.5-1.4,2.3-1.6,1.3-3.2L799,362.1z M721.5,432.1c0.8,2.5,2.4,2.6,3.9,2.6
	C726.3,432.6,724.2,429.8,721.5,432.1L721.5,432.1z M776.2,423.8c1-2.5,3.2-0.4,4-2.9c-1.3-3.8-5.1-0.5-7.6-0.8
	c-1.1,1.8,1.8,1.4,0.3,2.6c-2,0.8-2.4-2.4-4.3-1.5c1,1.8,1.8,3.5,1.4,4.8C772.7,425.7,775.8,425.3,776.2,423.8L776.2,423.8z
	 M738.4,446.5c0.2,1.2-0.3,1.7,1.1,2.2c0.5-0.4,1.4-0.7,1.1-1.4C739.7,447.7,739.4,446.3,738.4,446.5L738.4,446.5z M238.9,697.6
	C240.2,702.3,242.2,696.4,238.9,697.6L238.9,697.6z M697.7,451.7c-0.5-1.9-2.1-1-2.5-3.3c-1.8,1-2,2.6-2.6,3.9
	c1.8-0.5,2.4,3.6,2.1,4.4c2.5-1.3,0.2-2.5,1.5-4.4C696,452.7,697.8,452.9,697.7,451.7z M828.9,398.6
	C830.5,403.4,832.5,397.5,828.9,398.6L828.9,398.6z M765.4,421.8c0.1,2.5,1.3,4.9,3.6,5.5C768.4,425.6,768.3,422.3,765.4,421.8z
	 M649.2,492.8c-0.2-1.2-1.5-1.7-2.1-2.6c0,0,1-1.5,0-1.8c-0.3-0.1-1.6,1.2-1.1,1.4c1.8,0.1-0.4,3.9,2.1,6.2c1.1-0.6,1.3-0.9,0.8-2.2
	C648.5,493.2,649.2,493,649.2,492.8z M780.7,426.2c0.1,0,0.7-0.4,0.7-0.4c0.5,0.6,0.6,0.4,0.7-0.4c-0.1,0.4-1,0-1.1-0.4
	c0,0.1,1.1-1,0.4-1.1C780.7,423.9,779.7,425.7,780.7,426.2z M749,421.5c-0.2-0.5-0.5-0.9-1-1.2c-0.5-0.3-1-0.4-1.5-0.3
	c0.3,0.9-0.8,1.4-1.8,1.8c0.6,1,1,2.8,2.1,2.6C746.3,423,749.1,422.8,749,421.5z M735.8,452.3c1-0.1,2,0,2.9,0.4
	c-0.3,0.3-0.5,0.6-0.7,1c-0.1,0.4-0.2,0.8-0.1,1.2c2-0.7,2-2.2,0.8-4C738.2,450.9,735.1,450.4,735.8,452.3L735.8,452.3z
	 M801.4,419.2c2.4,0.8,1.5-1,0.4-3c-2,2.5-4.9-0.6-4.8,1.4c0.5-0.2,0.9-0.3,1.1,0.4c2,2-2.1,1.7-0.1,3.6c1,0.8,2.9-1.2,3.6,0.1
	c0.3,0.5,0.4,1,0.3,1.5c-0.1,0.5-0.3,1-0.7,1.4c-1-1.4-2.7-0.5-4-0.8c1.3,4.8,4.9,3.5,8.7,1.2c0-1.7-0.2-3.4-0.6-5.1
	C804.1,419.8,802.4,420.7,801.4,419.2L801.4,419.2z M803.1,430.5l0.7,1.5l1.5-0.7l-0.7-1.5L803.1,430.5z M792.6,427.7
	c0.8,1.3,0,2,0.7,3.3l3.7-1.8C796.2,426.7,794.8,426.2,792.6,427.7L792.6,427.7z M794.7,432.1c-2.1-0.8-4.4,1.6-5.9,2.8
	c1.6,2.1,2.1,2.3,3.6,1.9c-0.1,0,0.3-2,0.8-2.2c0.7-0.4,1.2,0.2,1.8,0C794.6,433.8,794.6,432.9,794.7,432.1L794.7,432.1z
	 M805.2,414.4l0.7,1.5c0.7-0.4,1.2,0.2,1.8,0C807.2,414.8,806.7,413.3,805.2,414.4L805.2,414.4z M819,420.9c0,0.1,1.2-1,0.4-1.1
	c-0.8-0.1-1.8,1.6-0.8,2.2c0.1,0,0.7-0.4,0.7-0.4c0.5,0.6,0.6,0.4,0.7-0.4C820,421.8,819.1,421.4,819,420.9L819,420.9z M825.7,397.9
	c-0.7-1.7-1.7-2-3.3-1.1l1.1,2.2L825.7,397.9z M811.8,418.7c0.2,0.3,0.5-0.8,0.4-1.1c-0.3-0.8-1.1-0.6-1.4-1.1l-2.2,1.1
	c-0.1,0.7-0.1,1.4,0.1,2.1c0.2,0.7,0.5,1.3,0.9,1.9c2-1.8,2.8,0.1,4.4-0.3C814.6,419.2,812.7,420,811.8,418.7L811.8,418.7z
	 M824.4,401.5c-1,0.5-1.3-1-2.2-0.8C822.1,402.7,825,403.7,824.4,401.5L824.4,401.5z M824.2,411.3
	C829.7,410.7,824.9,407.7,824.2,411.3L824.2,411.3z M813.3,415.5c2.4-2.2,3.9,1.4,4.7-1.4c0.3,1.7,3.6,0.2,1.1,0.4
	c-3.2-1.2,2.2-2.8,1.2-5.1C816.1,408.7,813.8,413,813.3,415.5L813.3,415.5z M249.8,553.6l2.9-1.4l-0.7-1.5l-2.9,1.4L249.8,553.6z
	 M256.4,554.7c-0.2-0.5-0.5-0.9-1-1.2c-0.5-0.3-1-0.4-1.5-0.3c0.4,0.8,0.5,1.7,0.3,2.6L256.4,554.7z M240.7,562.4
	c-0.6-1.1-1.1-2.6-2.5-1.5l0.7,1.5C239.6,562,240.1,562.6,240.7,562.4L240.7,562.4z M269.2,550.7l-1.5,0.7c0.2,0.5,0.5,1,0.7,1.5
	l1.5-0.7C269.7,551.7,269.5,551.2,269.2,550.7L269.2,550.7z M250.5,548l-1.5,0.7l0.7,1.5l1.5-0.7L250.5,548z M197.3,653.4
	C198.6,658.1,200.6,652.2,197.3,653.4L197.3,653.4z M264.5,555.5l2.9-1.4c-0.9-2.2-1.8-4-3.9-2.6
	C265.1,553.2,263.3,553.8,264.5,555.5L264.5,555.5z M223.8,572.4l-2.2,1.1l0.7,1.5l2.2-1.1L223.8,572.4z M236.3,560.9l-1.4-3
	C231.9,558.7,233.8,562.8,236.3,560.9L236.3,560.9z M217.5,578.1l2.9-1.4c-0.9-2.2-1.8-4-3.9-2.6
	C218.1,575.8,216.4,576.5,217.5,578.1L217.5,578.1z M216.3,585c0.6,1.8,1.5,2.7,2.9,2.2c-0.8-1.7,0.2-2.8-1.4-4.8
	c-0.7-0.1-1.4-0.1-2.1,0.1c-0.7,0.2-1.3,0.5-1.9,0.9C214.3,585.1,215.5,584.5,216.3,585L216.3,585z M260.3,551.3c-0.5-1-1-2-1.4-3
	c-3,2.9-2.9-3.3-5.8-0.8c-0.1,0.7-0.1,1.4,0.1,2.1c0.2,0.7,0.5,1.3,0.9,1.9c1.3-0.7,2.1-0.1,2.5,1.5
	C258.6,551.4,257.8,551.8,260.3,551.3L260.3,551.3z M226.7,571c0.6,1,0.9,2.1,0.7,3.3C230,574.4,227.9,570.1,226.7,571L226.7,571z
	 M331,466.9c0.4-0.2,0.8-0.4,0.4-1c-1.2,0.8-2.8,1.4-1.9,3.1C331,468.8,330.5,467.6,331,466.9z M315.7,473.8
	c-0.9,0.3-1.3-0.5-2.3,0.1C313,476.1,316.5,475.1,315.7,473.8L315.7,473.8z M310.4,478.3c0.3,2,3,5,3.4,2.6
	c-1.8,0.5,0.5-1.5-1.1-2.7C311.9,478.5,311.5,477.7,310.4,478.3L310.4,478.3z M328.7,474.9c-2-2,0.4-6.7-3.1-5.8
	C326.8,470.8,326.9,474.8,328.7,474.9L328.7,474.9z M858.3,157.2c-0.4-1.1,1.5-1.2,0.5-2.6C857.2,154.6,857.2,157.9,858.3,157.2
	L858.3,157.2z M856.9,153.8c-0.9,0.2-0.7-0.6-0.5-1.4c-0.8,0.4-2,0.7-1.8,1.5C855.4,153.2,857.3,156,856.9,153.8L856.9,153.8z
	 M312.9,476.6c0.6,1.1,0.7,3.7,2.4,2.2C314.9,477.1,314.1,476.3,312.9,476.6z M828.8,132.8c-0.4-0.5-0.5-1.3-1.2-1.1
	c0.3,0.9-1,1.1-0.8,1.9C827.9,133.5,828.3,134,828.8,132.8L828.8,132.8z M875.7,208.5c-1-0.7-2.3-0.6-3.5-1c0.1,0.6-0.3,1-1.1,1.2
	c0.4,1.1,1,2.3-0.5,2.6l-1.1-2.7c-2.3,0.5,0,2.8-2.4,1.8c0.3,2.3,2.4,0.6,2.7,2.8c-2.9,0-0.6,2.4-2.9,2.7c-0.5-1.2,0.2-4.7-1.9-4.7
	c0,0.4,0,0.7-0.2,1.1c-0.1,0.3-0.4,0.6-0.6,0.8c0.4,1.1,1,2.3-0.5,2.6c-0.8-2.5,0.3-5.8-2.4-6.1c0.8,2.6-1.8,3.1-1.1,5.2
	c0,0,0.6-0.3,0.7-0.3c0.5,0.2,1.2,1.1,0.5,1.4c-1.2,0.7-1.8-0.2-2.9,0.4c-0.5,2.3,1.1,2,1,4.3c1.5,0.1,1.4-3,2.7-1.1
	c-0.3,2.8,1.8,3.7,1.5,5.7c-0.1,0.5-2.1,0.8-0.8,1.9c2.5-0.4-0.2-3.1,2.6-3.4c-0.5-1.1-0.9-2.3-1.4-3.4c2.7,1.2,0-2.4,2.8-2.7
	c1.4-0.2,2,1.4,3.9,0c-0.4-1.3-0.5-2.4,0.3-3.3c1.1-0.4,1.2,1.5,2.6,0.5c1-0.7-0.3-2.4,2.2-2.4C873.7,210.3,877,210.5,875.7,208.5
	L875.7,208.5z M783.2,42.4c-0.6-0.7-1.3-1.2-2.2-1.5C781.3,41.9,783.6,44.2,783.2,42.4L783.2,42.4z M355.6,451.5
	c0.7-0.2,0.6-1,1.1-1.2c0.6,0.9,1.8,0.2,2.6,0.5c0.8,0.4,1,2.1,2.2,1.5c0.8-1.8-1-3.3-1.9-4.8c-2.7,1.8-2.9-1.8-5.2-1.1
	c-1.1,1,1.7,3.7,0.3,4.6C354.4,451.3,355.2,451.6,355.6,451.5L355.6,451.5z M357.9,459.2c-0.2-0.5-0.4-0.9-0.5-1.3l-1.4,0.5l0.5,1.4
	L357.9,459.2z M851.1,160.9C847.4,159.6,850.4,163.7,851.1,160.9L851.1,160.9z M361.4,456.3l-0.5-1.4c-0.2-0.4-0.4-0.8-1-0.4
	c0.4,1.1-1.7,1.1-1.5,2.2C359.4,456.6,360.1,457.2,361.4,456.3z M384.8,434.3l3.4-1.4c-0.7-0.8-0.9-1.9-1.8-2.4
	c-0.6-0.4-1.6,0.3-2.3,0.1c-0.7-0.2-0.7-2-1.9-0.8C383.5,432.1,385,431.5,384.8,434.3z M363.3,445.3c-2.1,1.1,0.3,4.9,1.9,4.7
	c0.2-1.8-1.6-4.4,0.1-5.6c1.3,1.4,2.5-2.5,3.5,1c1.8-0.4,1-1.8,3.1-2c-0.3-2-1.5-0.4-2.6-0.5c-1.3-0.2-1.2-2.9-2.4-2.2
	c1.4,2.7-2.8,0.9-2.9-1.2c-2,0.2-0.8,1.9-2.2,2.4c-0.1-0.4-0.9-0.6-0.7,0.3C362.7,441.5,362.5,444.5,363.3,445.3z M859.7,207.9
	l1.4-0.5l-0.6-1.4l-1.4,0.5L859.7,207.9z M856.3,169.9c0.5,1.9,1.4,2.8,3.1,1.9c-0.5-0.9-0.6-2-0.4-3
	C857.1,169.5,858,170.5,856.3,169.9L856.3,169.9z M855.5,226.9c-0.9-1.1-1.5-2.7-2.7-2.8c1.4,2.1-2.4,2-0.7,4.2
	C854.2,229,854.5,228.9,855.5,226.9L855.5,226.9z M370.2,444.9c-0.8,1.9,4.2,1.8,2.3-0.1C372.4,444.7,370.4,444.4,370.2,444.9z"/>
<g>
	<defs>
		<rect id="SVGID_1_" x="245" y="24" width="327.2" height="104"/>
	</defs>
	<clipPath id="SVGID_00000147934257539322117710000000412755107222869127_">
		<use xlink:href="#SVGID_1_"  style="overflow:visible;"/>
	</clipPath>
	<g style="clip-path:url(#SVGID_00000147934257539322117710000000412755107222869127_);">
		<line class="st2" x1="568.6" y1="109.2" x2="203.8" y2="109.2"/>
		<line class="st2" x1="568.6" y1="63.4" x2="203.8" y2="63.4"/>
		<line class="st2" x1="568.6" y1="33" x2="203.8" y2="33"/>
		<line class="st2" x1="568.6" y1="124.4" x2="203.8" y2="124.4"/>
		<line class="st2" x1="568.6" y1="78.7" x2="203.8" y2="78.7"/>
		<line class="st2" x1="568.6" y1="48.2" x2="203.8" y2="48.2"/>
		<line class="st2" x1="568.6" y1="93.9" x2="203.8" y2="93.9"/>
	</g>
</g>
</svg>
